<?xml version="1.0" encoding="utf-8"?>
<!-- Generator: Adobe Illustrator 27.5.0, SVG Export Plug-In . SVG Version: 6.00 Build 0)  -->
<svg version="1.1" id="Layer_1" xmlns="http://www.w3.org/2000/svg" xmlns:xlink="http://www.w3.org/1999/xlink" x="0px" y="0px"
	 viewBox="0 0 3662.143 1536.431" style="enable-background:new 0 0 3662.143 1536.431;" xml:space="preserve">
<rect style="fill:#ECDDD5;" width="3662.143" height="1536.431"/>
<g>
	
		<ellipse transform="matrix(0.7071 -0.7071 0.7071 0.7071 774.2457 2497.0874)" style="fill:#F4EBE6;" cx="3401.374" cy="313.946" rx="188.368" ry="188.368"/>
	<circle style="fill:#F4EBE6;" cx="2780.546" cy="621.64" r="54.597"/>
	
		<ellipse transform="matrix(0.7071 -0.7071 0.7071 0.7071 47.6231 849.4937)" style="fill:#F4EBE6;" cx="1049.241" cy="367.261" rx="188.368" ry="188.368"/>
	<circle style="fill:#F4EBE6;" cx="2086.339" cy="246.42" r="67.527"/>
	
		<ellipse transform="matrix(0.7071 -0.7071 0.7071 0.7071 197.4648 1500.1959)" style="fill:#F4EBE6;" cx="1909.629" cy="511.737" rx="109.893" ry="109.893"/>
	
		<ellipse transform="matrix(0.7071 -0.7071 0.7071 0.7071 -515.0545 406.1059)" style="fill:#F4EBE6;" cx="232.686" cy="824.779" rx="109.893" ry="109.893"/>
	<circle style="fill:#F4EBE6;" cx="472.023" cy="210.783" r="78.004"/>
	<circle style="fill:#F4EBE6;" cx="2643.458" cy="307.667" r="137.087"/>
</g>
<g>
	<polygon style="fill:#DA8C8D;" points="2348.279,630.871 2235.895,630.871 2251.099,520.846 2328.378,520.846 	"/>
	<path style="fill:#233264;" d="M2379.299,630.895c-20.717-6.112-43.361-9.848-66.914-11.341l0.01-0.404
		c-6.804-0.286-13.58-0.391-20.308-0.33c-6.728-0.062-13.504,0.044-20.308,0.33l0.01,0.404c-23.552,1.493-46.196,5.23-66.913,11.341
		c-269.217,79.423-60.586,513.467-60.586,513.467h140.41h14.776h140.41C2439.885,1144.362,2648.515,710.319,2379.299,630.895z"/>
	<path style="fill:#DA8C8D;" d="M2292.087,587.917L2292.087,587.917c-40.58,0-73.477-32.897-73.477-73.476v-56.03
		c0-40.58,32.896-73.476,73.477-73.476l0,0c40.58,0,73.476,32.896,73.476,73.476v56.03
		C2365.563,555.021,2332.667,587.917,2292.087,587.917z"/>
	<path style="fill:#F6B233;" d="M2400.349,639.285l-24.036,180.048h-172.119l-23.528-176.245c-0.783-5.868-7.23-9.106-12.405-6.231
		l-24.235,13.465c-2.667,1.481-4.32,4.292-4.32,7.342v161.669v325.029h304.761l-3.666-325.029V656.126
		c0-2.101-1.139-4.036-2.975-5.057l-28.934-16.076C2405.328,633.013,2400.889,635.243,2400.349,639.285z"/>
	<path style="fill:#233264;" d="M2267.377,458.65l-18.173,3.318c-2.845,0.519-5.572-1.366-6.091-4.211l0,0
		c-0.519-2.845,1.366-5.572,4.211-6.091l18.173-3.318c2.845-0.519,5.572,1.366,6.091,4.211l0,0
		C2272.107,455.404,2270.221,458.131,2267.377,458.65z"/>
	<path style="fill:#233264;" d="M2327.67,462.068l-18.131-3.542c-2.838-0.554-4.689-3.305-4.135-6.143l0,0
		c0.554-2.838,3.305-4.69,6.143-4.135l18.131,3.541c2.838,0.554,4.689,3.305,4.135,6.143v0
		C2333.258,460.771,2330.508,462.622,2327.67,462.068z"/>
	<path style="fill:#233264;" d="M2263.599,473.445c0,3.208-2.601,5.809-5.809,5.809c-3.208,0-5.809-2.601-5.809-5.809
		s2.601-5.809,5.809-5.809C2260.998,467.635,2263.599,470.236,2263.599,473.445z"/>
	<path style="fill:#233264;" d="M2323.223,473.445c0,3.208-2.601,5.809-5.809,5.809c-3.208,0-5.81-2.601-5.81-5.809
		s2.601-5.809,5.81-5.809C2320.622,467.635,2323.223,470.236,2323.223,473.445z"/>
	<path style="fill:#FFFFFF;" d="M2270.22,524.298c0,0,23.507,2.958,41.384-6.476c0,0-1.591,27.555-20.692,28.351
		C2271.811,546.969,2270.22,524.298,2270.22,524.298z"/>
	<path style="fill:#233264;" d="M2284.838,458.195c-1.353,4.557-2.79,9.082-4.182,13.625l-4.34,13.568l-1.067,3.399
		c-0.323,1.107-0.777,2.369-0.89,3.21c-0.272,1.864,0.172,3.797,1.286,5.329c0.537,0.779,1.255,1.437,2.089,1.938
		c0.75,0.485,2.01,0.905,3.058,1.411c2.179,0.968,4.337,1.998,6.438,3.2l-0.105,0.317c-2.403-0.293-4.749-0.758-7.074-1.285
		c-0.583-0.127-1.164-0.259-1.74-0.407c-0.535-0.13-1.254-0.316-1.892-0.594c-1.29-0.554-2.456-1.426-3.395-2.503
		c-1.888-2.163-2.606-5.298-1.907-8.075c0.398-1.478,0.906-2.404,1.341-3.542l1.339-3.301l5.284-13.229
		c1.816-4.39,3.586-8.797,5.441-13.173L2284.838,458.195z"/>
	<path style="fill:#233264;" d="M2291.843,589.59c-28.674,0-47.895-17.386-48.7-18.129c-0.68-0.625-0.724-1.681-0.099-2.361
		c0.622-0.679,1.683-0.725,2.361-0.1c0.188,0.173,19.113,17.246,46.444,17.246c0.08,0,0.165,0.002,0.237,0
		c0.921,0,1.669,0.745,1.672,1.666c0.003,0.923-0.742,1.674-1.666,1.678C2292.01,589.59,2291.925,589.59,2291.843,589.59z"/>
	<path style="fill:#233264;" d="M2234.681,426.043c0,0,2.715,43.462-16.071,55.042v36.737c0,0-41.99-44.741-9.722-91.779H2234.681z"
		/>
	<path style="fill:#233264;" d="M2346.639,426.043c0,0-2.715,43.462,16.071,55.042l2.577,39.761c0,0,39.413-47.765,7.146-94.803
		H2346.639z"/>
	<g>
		<g>
			
				<ellipse transform="matrix(0.7071 -0.7071 0.7071 0.7071 355.3372 1820.0308)" style="fill:#DA8C8D;" cx="2374.64" cy="481.085" rx="19.357" ry="19.357"/>
			<path style="fill:#233264;" d="M2364.184,487.869c-0.17-2.665,0.504-5.358,1.778-7.807c1.28-2.438,3.357-4.633,5.988-5.899
				c2.616-1.301,5.618-1.57,8.316-1.111c2.719,0.451,5.223,1.523,7.365,3.094c-2.64-0.274-5.145-0.563-7.551-0.472
				c-2.399,0.064-4.668,0.508-6.664,1.494c-2.005,0.966-3.757,2.465-5.258,4.326
				C2366.649,483.357,2365.365,485.507,2364.184,487.869z"/>
		</g>
		<g>
			
				<ellipse transform="matrix(0.9871 -0.1602 0.1602 0.9871 -49.6461 359.8695)" style="fill:#DA8C8D;" cx="2207.3" cy="487.869" rx="19.357" ry="19.357"/>
			<path style="fill:#233264;" d="M2217.757,494.653c-1.181-2.363-2.465-4.513-3.972-6.375c-1.501-1.861-3.253-3.36-5.258-4.326
				c-1.997-0.985-4.265-1.43-6.664-1.494c-2.406-0.091-4.912,0.198-7.551,0.472c2.141-1.572,4.645-2.644,7.365-3.094
				c2.698-0.458,5.7-0.19,8.316,1.112c2.63,1.266,4.708,3.46,5.988,5.899C2217.253,489.295,2217.927,491.988,2217.757,494.653z"/>
		</g>
	</g>
	<g>
		<g>
			<path style="fill:#F6B233;" d="M2392.026,437.18c0-55.195-44.744-99.939-99.939-99.939s-99.939,44.744-99.939,99.939H2392.026z"
				/>
		</g>
	</g>
	<g>
		<path style="fill:#233264;" d="M2099.36,707.699c0,0-177.828,285.656-66.175,377.007
			c68.945,56.408,305.455-134.342,305.455-134.342l-43.974-66.273l-164.598,57.317L2099.36,707.699z"/>
		<g>
			<path style="fill:#EE677A;" d="M2336.263,971.058l-70.315-31.65c-4.419-1.989-6.389-7.185-4.4-11.604l59.373-131.907
				c1.99-4.419,7.185-6.389,11.604-4.4l70.315,31.65c4.419,1.989,6.389,7.185,4.4,11.604l-59.373,131.907
				C2345.878,971.077,2340.683,973.047,2336.263,971.058z"/>
			<g>
				<path style="fill:#233264;" d="M2284.53,949.865c-0.287,0-0.579-0.059-0.857-0.184c-1.054-0.475-1.523-1.713-1.05-2.767
					l66.577-147.911c0.476-1.055,1.715-1.523,2.767-1.05c1.054,0.475,1.523,1.713,1.05,2.767l-66.577,147.911
					C2286.09,949.406,2285.328,949.865,2284.53,949.865z"/>
				<path style="fill:#233264;" d="M2317.404,965.396c-0.287,0-0.579-0.06-0.857-0.185c-1.054-0.475-1.523-1.713-1.05-2.767
					l66.577-147.911c0.475-1.055,1.714-1.522,2.767-1.05c1.054,0.475,1.523,1.713,1.05,2.767l-66.577,147.911
					C2318.964,964.938,2318.202,965.396,2317.404,965.396z"/>
			</g>
		</g>
		<path style="fill:#121D3D;" d="M2300.787,978.998l-64.893-47.802c0,0,29.578,49.51,44.772,62.16L2300.787,978.998z"/>
		<g>
			<path style="fill:#DA8C8D;" d="M2299.204,871.655c0,0,47.553-15.949,51.905-15.077c4.351,0.872,35.456,24.108,35.456,24.108
				l-2.582,20.491L2299.204,871.655z"/>
			<path style="fill:#233264;" d="M2340.605,882.865c-0.523,0-1.035-0.259-1.339-0.731c-0.473-0.738-0.258-1.721,0.48-2.193
				l24.8-15.882c0.74-0.474,1.72-0.257,2.193,0.481c0.473,0.738,0.258,1.721-0.48,2.193l-24.8,15.882
				C2341.194,882.784,2340.898,882.865,2340.605,882.865z"/>
			<path style="fill:#233264;" d="M2361.079,889.663c-0.473,0-0.94-0.21-1.253-0.611c-0.539-0.692-0.415-1.69,0.276-2.228
				l17.265-13.443c0.692-0.54,1.689-0.414,2.228,0.276c0.539,0.692,0.415,1.689-0.276,2.228l-17.265,13.443
				C2361.764,889.555,2361.42,889.663,2361.079,889.663z"/>
		</g>
	</g>
	<path style="fill:#121D3D;" d="M2032.97,995.736c-0.433,0-0.871-0.117-1.265-0.364c-1.113-0.699-1.449-2.169-0.75-3.283
		c9.287-14.787,30.367-28.774,62.655-41.574c23.845-9.452,45.318-14.724,45.532-14.776c1.279-0.31,2.565,0.474,2.877,1.75
		c0.311,1.277-0.473,2.565-1.75,2.877c-0.841,0.205-84.315,20.873-105.281,54.257
		C2034.536,995.342,2033.762,995.736,2032.97,995.736z"/>
	<path style="fill:#DA8C8D;" d="M2224.337,625.965l67.749,143.963l63.196-144.903
		C2355.283,625.025,2304.649,601.608,2224.337,625.965z"/>
	<path style="fill:#F6B233;" d="M2139.706,1076.383c0,0-46.736,251.038-46.736,278.325h406.658l-56.112-294.692L2139.706,1076.383z"
		/>
	<path style="fill:#233264;" d="M2395.348,1273.462h-205.51c-9.259,0-16.791-7.532-16.791-16.791v-155.497
		c0-9.259,7.532-16.791,16.791-16.791h205.51c9.259,0,16.791,7.532,16.791,16.791v155.497
		C2412.139,1265.93,2404.606,1273.462,2395.348,1273.462z M2189.838,1088.164c-7.174,0-13.01,5.836-13.01,13.01v155.497
		c0,7.174,5.836,13.01,13.01,13.01h205.51c7.174,0,13.01-5.836,13.01-13.01v-155.497c0-7.174-5.836-13.01-13.01-13.01H2189.838z"/>
	<g>
		<path style="fill:#233264;" d="M2210.33,1126.782c-7.359,0-13.346-5.986-13.346-13.346s5.986-13.347,13.346-13.347
			s13.346,5.987,13.346,13.347S2217.689,1126.782,2210.33,1126.782z M2210.33,1102.926c-5.795,0-10.51,4.715-10.51,10.511
			c0,5.795,4.715,10.51,10.51,10.51s10.51-4.715,10.51-10.51C2220.84,1107.641,2216.125,1102.926,2210.33,1102.926z"/>
		<path style="fill:#233264;" d="M2380.681,1126.782c-7.359,0-13.346-5.986-13.346-13.346s5.986-13.347,13.346-13.347
			s13.347,5.987,13.347,13.347S2388.04,1126.782,2380.681,1126.782z M2380.681,1102.926c-5.795,0-10.51,4.715-10.51,10.511
			c0,5.795,4.715,10.51,10.51,10.51c5.796,0,10.511-4.715,10.511-10.51C2391.191,1107.641,2386.477,1102.926,2380.681,1102.926z"/>
	</g>
	<path style="fill:#233264;" d="M2395.35,1087.945c-0.036,0-0.071-0.001-0.107-0.003c-0.921-0.059-1.621-0.853-1.563-1.774
		l27.434-435.048c0.06-0.922,0.875-1.622,1.774-1.563c0.921,0.058,1.621,0.852,1.563,1.774l-27.434,435.048
		C2396.96,1087.265,2396.225,1087.945,2395.35,1087.945z"/>
	<path style="fill:#233264;" d="M2195.108,1087.945c-0.858,0-1.589-0.657-1.664-1.528l-37.144-430.384
		c-0.079-0.92,0.603-1.73,1.522-1.809c0.927-0.085,1.729,0.602,1.81,1.522l37.144,430.384c0.079,0.92-0.603,1.729-1.522,1.81
		C2195.205,1087.943,2195.156,1087.945,2195.108,1087.945z"/>
	<g>
		<g>
			<path style="fill:#233264;" d="M2487.155,711.6c0,0,176.878,261.086,54.195,353.937
				c-71.031,53.759-305.455-134.342-305.455-134.342l43.974-66.273l164.598,57.317L2487.155,711.6z"/>
			<g>
				<g>
					<path style="fill:#233264;" d="M2238.589,900.259L2238.589,900.259c-5.141,2.641-11.451,0.615-14.092-4.527l-38.741-75.408
						l18.619-9.565l38.741,75.408C2245.757,891.309,2243.73,897.618,2238.589,900.259z"/>
					<path style="fill:#FFFFFF;" d="M2116.349,668.693l13.047,127.491c0.151,1.471,1.312,2.636,2.782,2.791l55.456,5.85
						c1.236,0.13,2.432-0.484,3.046-1.565l27.54-48.488c0.73-1.286,0.46-2.908-0.648-3.887l-96.043-84.852
						C2119.396,664.147,2116.059,665.861,2116.349,668.693z"/>
					<path style="fill:#233264;" d="M2201.262,829.691c-0.76,0-1.492-0.415-1.863-1.137l-37.857-73.689
						c-0.527-1.028-0.122-2.289,0.905-2.817c1.027-0.531,2.289-0.122,2.817,0.905l37.857,73.689
						c0.527,1.027,0.122,2.289-0.905,2.817C2201.91,829.617,2201.583,829.691,2201.262,829.691z"/>
				</g>
				<g>
					<path style="fill:#DA8C8D;" d="M2274.548,872.941l-23.206-10.604c0,0-12.113-24.421-15.448-26.193
						c-2.104-1.118-26.15-2.528-43.607-3.416c-9.88-0.503-18.161,7.374-18.161,17.266v13.67c0,12.664,6.567,24.422,17.348,31.064
						l48.707,30.007L2274.548,872.941z"/>
					<path style="fill:#233264;" d="M2200.177,858.166c-0.245,0-0.494-0.057-0.727-0.177l-24.28-12.519
						c-0.779-0.402-1.085-1.359-0.684-2.139c0.403-0.778,1.36-1.086,2.139-0.684l24.28,12.519c0.779,0.402,1.085,1.359,0.684,2.139
						C2201.307,857.852,2200.752,858.166,2200.177,858.166z"/>
					<path style="fill:#233264;" d="M2199.249,873.243c-0.245,0-0.494-0.057-0.727-0.177l-24.279-12.518
						c-0.779-0.402-1.085-1.359-0.684-2.139c0.402-0.778,1.36-1.085,2.139-0.684l24.279,12.518c0.779,0.402,1.085,1.359,0.684,2.139
						C2200.379,872.929,2199.824,873.243,2199.249,873.243z"/>
					<path style="fill:#233264;" d="M2196.603,887.405c-0.245,0-0.494-0.057-0.727-0.177l-19.902-10.262
						c-0.779-0.402-1.085-1.359-0.684-2.139c0.402-0.778,1.36-1.086,2.139-0.684l19.902,10.262c0.779,0.402,1.085,1.359,0.684,2.139
						C2197.732,887.091,2197.178,887.405,2196.603,887.405z"/>
				</g>
			</g>
		</g>
		<path style="fill:#121D3D;" d="M2554.791,979.837c-0.817,0-1.614-0.422-2.057-1.179c-21.669-37.038-107.847-53.914-108.715-54.08
			c-1.292-0.247-2.139-1.495-1.892-2.786c0.247-1.292,1.493-2.135,2.786-1.892c0.222,0.043,22.435,4.34,47.1,13.304
			c33.409,12.142,55.222,26.626,64.83,43.05c0.664,1.135,0.282,2.593-0.853,3.257
			C2555.613,979.732,2555.199,979.837,2554.791,979.837z"/>
	</g>
</g>
<g>
	<g>
		<path style="fill:#DA8C8D;" d="M1842.387,1227.335c0,0,31.868,48.899,31.868,51.778s-9.943,58.703-34.873,62.648
			c-18.481,2.925-44.775-9.869-45.734-19.465s0-54.698,0-54.698l-6.551-18.719L1842.387,1227.335z"/>
		<g>
			<path style="fill:#FFFFFF;" d="M1913.439,1248.285l-4.396-7.808l131.677-74.133c2.156-1.214,4.888-0.45,6.102,1.706l0,0
				c1.214,2.156,0.45,4.888-1.706,6.102L1913.439,1248.285z"/>
			<line style="fill:#233264;" x1="1909.636" y1="1267.377" x2="1909.629" y2="1267.364"/>
			<path style="fill:#233264;" d="M1920.06,1260.045l-17.593-31.249c-1.718-3.051-5.584-4.132-8.635-2.414l0,0
				c-3.051,1.718-4.132,5.584-2.414,8.635l4.046,7.187c0.015,0.027,0.001,0.06-0.029,0.065c-3.72,0.612-11.823,1.642-17.255,0.13
				c-0.011-0.003-0.022-0.002-0.032,0.004l-72.865,41.022c-8.811,4.961-12.477,16.046-7.813,25.018
				c4.876,9.38,16.504,12.79,25.642,7.645l73.282-41.274c0.01-0.006,0.017-0.015,0.02-0.025c1.525-5.429,6.608-11.822,9.061-14.686
				c0.02-0.023,0.056-0.018,0.071,0.009l3.464,6.153c1.718,3.051,5.584,4.132,8.635,2.414l0,0
				C1920.697,1266.963,1921.778,1263.097,1920.06,1260.045z"/>
			<path style="fill:#233264;" d="M2039.491,1172.574c-0.139,0-0.272-0.072-0.346-0.202c-0.107-0.19-0.04-0.433,0.151-0.54
				l7.331-4.127c0.189-0.109,0.431-0.041,0.54,0.151c0.107,0.19,0.04,0.433-0.151,0.54l-7.331,4.127
				C2039.624,1172.559,2039.558,1172.574,2039.491,1172.574z"/>
		</g>
		<path style="fill:#DA8C8D;" d="M1856.819,1254.412c0,0,15.879,46.068,3.026,43.768c-4.396-0.787-28.249-15.585-25.899-36.739
			C1836.297,1240.286,1856.819,1254.412,1856.819,1254.412z"/>
		<path style="fill:#DA8C8D;" d="M1849.694,1303.438c0,0-24.319-15.446-35.492-13.145c-11.174,2.3-32.234,16.682-20.554,32.003
			s53.203,15.547,53.203,15.547L1849.694,1303.438z"/>
		<path style="fill:#233264;" d="M1842.522,1314.811c-0.161,0-0.324-0.032-0.481-0.102c-14.433-6.394-35.729-19.519-35.943-19.65
			c-0.56-0.346-0.733-1.079-0.387-1.639c0.345-0.56,1.079-0.732,1.638-0.387c0.212,0.131,21.373,13.171,35.657,19.498
			c0.601,0.267,0.872,0.97,0.606,1.571C1843.415,1314.547,1842.979,1314.811,1842.522,1314.811z"/>
		<path style="fill:#233264;" d="M1839.382,1324.667c-0.114,0-0.231-0.017-0.347-0.052c-13.469-4.099-41.687-20.983-42.881-21.7
			c-0.564-0.338-0.747-1.069-0.409-1.633c0.338-0.564,1.071-0.747,1.633-0.408c0.29,0.174,29.16,17.45,42.35,21.464
			c0.629,0.191,0.983,0.856,0.792,1.485C1840.364,1324.337,1839.893,1324.667,1839.382,1324.667z"/>
		<path style="fill:#233264;" d="M1833.784,1335.06c-0.108,0-0.218-0.015-0.327-0.045c-13.839-3.938-41.799-19.396-42.982-20.052
			c-0.575-0.318-0.783-1.043-0.464-1.618s1.045-0.782,1.618-0.464c0.288,0.159,28.904,15.98,42.48,19.843
			c0.632,0.181,0.999,0.839,0.819,1.472C1834.779,1334.719,1834.303,1335.06,1833.784,1335.06z"/>
	</g>
	<polygon style="fill:#DA8C8D;" points="1552.961,630.871 1440.577,630.871 1455.782,520.846 1533.061,520.846 	"/>
	<path style="fill:#233264;" d="M1583.981,630.895c-20.717-6.112-43.361-9.848-66.913-11.341l0.01-0.404
		c-6.805-0.286-13.58-0.391-20.308-0.33c-6.728-0.062-13.504,0.044-20.308,0.33l0.01,0.404c-23.552,1.493-46.197,5.23-66.913,11.341
		c-269.217,79.423-60.586,513.467-60.586,513.467h140.41h14.776h140.41C1644.567,1144.362,1853.198,710.319,1583.981,630.895z"/>
	<path style="fill:#DA8C8D;" d="M1496.769,587.917L1496.769,587.917c-40.58,0-73.477-32.897-73.477-73.476v-56.03
		c0-40.58,32.896-73.476,73.476-73.476h0c40.58,0,73.476,32.896,73.476,73.476v56.03
		C1570.246,555.021,1537.349,587.917,1496.769,587.917z"/>
	<path style="fill:#F6B233;" d="M1605.032,639.285l-24.036,180.048h-172.119l-23.528-176.245c-0.783-5.868-7.23-9.106-12.405-6.231
		l-24.235,13.465c-2.666,1.481-4.32,4.292-4.32,7.342v161.669v325.029h304.761l-3.665-325.029V656.126
		c0-2.101-1.139-4.036-2.975-5.057l-28.934-16.076C1610.011,633.013,1605.571,635.243,1605.032,639.285z"/>
	<path style="fill:#233264;" d="M1496.75,474.358c-1.353,4.556-2.79,9.082-4.182,13.625l-4.34,13.568l-1.067,3.398
		c-0.323,1.107-0.777,2.369-0.89,3.21c-0.272,1.864,0.172,3.797,1.286,5.329c0.537,0.779,1.255,1.437,2.089,1.938
		c0.75,0.485,2.01,0.905,3.057,1.411c2.179,0.968,4.337,1.997,6.438,3.2l-0.105,0.317c-2.403-0.293-4.748-0.758-7.074-1.285
		c-0.583-0.127-1.164-0.259-1.74-0.407c-0.535-0.13-1.254-0.316-1.892-0.594c-1.29-0.554-2.456-1.426-3.395-2.503
		c-1.888-2.163-2.606-5.298-1.907-8.075c0.398-1.478,0.906-2.404,1.341-3.542l1.339-3.301l5.284-13.229
		c1.816-4.39,3.586-8.797,5.441-13.173L1496.75,474.358z"/>
	<path style="fill:#233264;" d="M1496.524,589.59c-28.674,0-47.893-17.386-48.7-18.129c-0.679-0.625-0.723-1.681-0.098-2.361
		c0.625-0.68,1.682-0.724,2.362-0.1c0.188,0.173,19.112,17.246,46.443,17.246c0.081,0,0.158,0.001,0.238,0
		c0.921,0,1.668,0.745,1.672,1.666c0.003,0.923-0.743,1.674-1.666,1.678C1496.692,589.59,1496.607,589.59,1496.524,589.59z"/>
	<path style="fill:#233264;" d="M1439.363,426.043c0,0,2.715,43.462-16.071,55.042v36.737c0,0-47.333-47.486-15.065-94.524
		L1439.363,426.043z"/>
	<path style="fill:#233264;" d="M1551.321,426.043c0,0-2.715,43.462,16.071,55.042l2.577,39.761c0,0,41.703-57.203,9.436-104.241
		L1551.321,426.043z"/>
	<path style="fill:#DA8C8D;" d="M1429.02,625.965l14.645,8.485c31.991,18.534,71.569,18.031,103.078-1.309l13.222-8.116
		C1559.965,625.025,1509.331,601.608,1429.02,625.965z"/>
	<path style="fill:#F6B233;" d="M1344.389,1076.383c0,0-46.736,251.038-46.736,278.325h406.658l-56.112-294.692L1344.389,1076.383z"
		/>
	<g>
		<path style="fill:#233264;" d="M1415.013,1127.255c-7.62,0-13.819-6.199-13.819-13.818c0-7.62,6.199-13.819,13.819-13.819
			s13.819,6.199,13.819,13.819C1428.832,1121.056,1422.632,1127.255,1415.013,1127.255z M1415.013,1103.398
			c-5.535,0-10.038,4.503-10.038,10.038c0,5.534,4.503,10.037,10.038,10.037s10.038-4.503,10.038-10.037
			C1425.05,1107.901,1420.547,1103.398,1415.013,1103.398z"/>
		<path style="fill:#233264;" d="M1585.363,1127.255c-7.62,0-13.819-6.199-13.819-13.818c0-7.62,6.199-13.819,13.819-13.819
			s13.819,6.199,13.819,13.819C1599.182,1121.056,1592.983,1127.255,1585.363,1127.255z M1585.363,1103.398
			c-5.535,0-10.038,4.503-10.038,10.038c0,5.534,4.503,10.037,10.038,10.037s10.038-4.503,10.038-10.037
			C1595.401,1107.901,1590.898,1103.398,1585.363,1103.398z"/>
	</g>
	<path style="fill:#233264;" d="M1601.811,1085.33c-0.033,0-0.067-0.001-0.101-0.003c-0.921-0.055-1.625-0.847-1.57-1.768
		l25.655-432.433c0.054-0.921,0.832-1.626,1.768-1.57c0.921,0.055,1.625,0.846,1.57,1.768l-25.655,432.432
		C1603.425,1084.646,1602.688,1085.33,1601.811,1085.33z"/>
	<path style="fill:#233264;" d="M1407.708,1085.33c-0.845,0-1.57-0.638-1.661-1.497l-45.061-427.768
		c-0.097-0.919,0.569-1.741,1.487-1.838c0.922-0.098,1.741,0.569,1.838,1.487l45.061,427.769c0.097,0.918-0.569,1.741-1.487,1.838
		C1407.826,1085.327,1407.767,1085.33,1407.708,1085.33z"/>
	<path style="fill:#233264;" d="M1533.355,428.252c15.856-1.642,32.039-4.045,46.05-11.647
		c23.67-12.843,38.121-40.882,34.847-67.612c-20.489,5.626-42.14-0.21-62.786-5.232c-20.509-4.989-41.414-9.206-62.518-8.883
		c-21.105,0.322-42.61,5.478-59.757,17.785c-17.148,12.307-29.348,32.41-29.087,53.516c0.055,4.417,0.669,8.857,2.048,13.061
		c0.945,2.883,2.458,8.124,5.795,8.966c3.839,0.969,8.622,0.671,12.587,1.012c5.259,0.454,10.525,0.837,15.794,1.151
		c20.651,1.229,41.365,1.386,62.032,0.469C1510.046,430.32,1521.718,429.458,1533.355,428.252z"/>
	<g>
		<g>
			
				<ellipse transform="matrix(0.9239 -0.3827 0.3827 0.9239 -63.8846 641.0016)" style="fill:#DA8C8D;" cx="1579.323" cy="481.085" rx="19.357" ry="19.357"/>
			<path style="fill:#233264;" d="M1568.866,487.869c-0.17-2.665,0.504-5.358,1.778-7.807c1.28-2.438,3.357-4.633,5.988-5.899
				c2.616-1.301,5.618-1.57,8.316-1.111c2.719,0.451,5.223,1.523,7.365,3.094c-2.64-0.274-5.145-0.563-7.551-0.472
				c-2.4,0.064-4.668,0.508-6.665,1.494c-2.005,0.966-3.757,2.465-5.258,4.326C1571.331,483.357,1570.047,485.507,1568.866,487.869z
				"/>
		</g>
		<g>
			
				<ellipse transform="matrix(0.9732 -0.2298 0.2298 0.9732 -74.3174 337.4573)" style="fill:#DA8C8D;" cx="1411.983" cy="487.869" rx="19.357" ry="19.357"/>
			<path style="fill:#233264;" d="M1422.439,494.653c-1.181-2.363-2.465-4.513-3.972-6.375c-1.501-1.861-3.253-3.36-5.258-4.326
				c-1.997-0.985-4.265-1.43-6.664-1.494c-2.406-0.091-4.911,0.198-7.551,0.472c2.141-1.572,4.645-2.644,7.364-3.094
				c2.698-0.458,5.7-0.19,8.316,1.112c2.63,1.266,4.708,3.46,5.988,5.899C1421.935,489.295,1422.609,491.988,1422.439,494.653z"/>
		</g>
	</g>
	<g>
		<path style="fill:#FFFFFF;" d="M1489.461,460.163l-12.646,34.054c-1.458,3.925-5.772,5.989-9.735,4.636
			c-9.15-3.124-25.551-10.035-40.581-23.153v-15.537H1489.461z"/>
		<path style="fill:#FFFFFF;" d="M1498.664,460.163l12.646,34.054c1.458,3.925,5.772,5.989,9.735,4.636
			c9.15-3.124,25.551-10.035,40.581-23.153v-15.537H1498.664z"/>
		<polygon style="fill:#233264;" points="1484.473,460.163 1503.74,460.163 1502.525,470.56 1485.6,470.56 		"/>
	</g>
	<path style="fill:#FFFFFF;" d="M1472.863,547.101c0,0,37.493-2.366,43.407-5.915c0,0-11.795,10.055-19.502,9.464
		C1489.063,550.059,1472.863,547.101,1472.863,547.101z"/>
	<g>
		<g>
			<path style="fill:#121D3D;" d="M1605.015,861.237l-23.925-29.161l17.778-11.05l8.743,35.399l1.269,2.048L1605.015,861.237z
				 M1588.216,833.254l12.543,15.289l-4.943-20.013L1588.216,833.254z"/>
			<g>
				<defs>
					<path id="XMLID_1_" d="M1678.287,697.714l-120.131,38.371c-1.578,0.504-3.02,1.359-4.219,2.502l-36.982,35.248
						c-2.69,2.564-3.894,6.317-3.198,9.967l23.031,120.792c0.181,0.948,0.486,1.868,0.908,2.735
						c4.535,9.328,31.87,65.075,36.618,63.224l58.756-22.914c5.628-2.195,8.412-8.537,6.217-14.166l-0.692-1.774
						c-2.195-5.628-8.537-8.412-14.166-6.217h0c-5.021,1.958-10.72-0.033-13.43-4.691l-21.872-37.602
						c-1.143-1.966-1.646-4.239-1.437-6.503l3.697-40.156c0.38-4.126,3.058-7.683,6.918-9.188l92.812-36.195
						c3.843-1.499,6.517-5.032,6.914-9.138l4.544-46.995c0.165-1.707-0.074-3.429-0.697-5.027l-10.072-25.825
						C1689.708,698.779,1683.788,695.956,1678.287,697.714z"/>
				</defs>
				<use xlink:href="#XMLID_1_"  style="overflow:visible;fill:#EE677A;"/>
				<clipPath id="XMLID_00000093147946002853724770000011543773436657405094_">
					<use xlink:href="#XMLID_1_"  style="overflow:visible;"/>
				</clipPath>
				<path style="clip-path:url(#XMLID_00000093147946002853724770000011543773436657405094_);fill:#121D3D;" d="M1516.681,812.752
					c-4.544,0-11.478-5.044-14.205-12.038c-3.787-9.71,1.032-20.691,10.742-24.477l80.571-31.422
					c9.711-3.785,20.691,1.032,24.477,10.742c1.806,4.631,1.586,9.417-0.618,13.476c-2.049,3.773-6.807,8.744-17.841,11.072
					l-79.573,31.032c-0.716,0.966-1.874,1.546-3.292,1.608C1516.856,812.75,1516.769,812.752,1516.681,812.752z M1600.64,748.285
					c-1.706,0-3.438,0.31-5.121,0.967l-80.571,31.421c-7.264,2.833-10.868,11.047-8.036,18.31c2.233,5.727,7.593,8.862,9.523,9.016
					l0.161-0.554l82.047-31.962c7.429-1.535,12.554-4.552,14.819-8.723c1.954-3.597,1.277-7.137,0.366-9.473
					C1611.653,751.706,1606.299,748.285,1600.64,748.285z"/>
				<path style="clip-path:url(#XMLID_00000093147946002853724770000011543773436657405094_);fill:#121D3D;" d="M1691.949,754.803
					l-25.171-64.544l26.558-6.796l25.171,64.544L1691.949,754.803z M1673.168,693.54l21.685,55.605l17.263-4.418l-21.685-55.606
					L1673.168,693.54z"/>
				<path style="clip-path:url(#XMLID_00000093147946002853724770000011543773436657405094_);fill:#121D3D;" d="M1597.999,921.556
					c-9.662,0-18.804-5.842-22.52-15.371l-7.416-19.015c-2.343-6.008-2.206-12.568,0.386-18.474
					c2.591-5.904,7.327-10.447,13.334-12.789l12.576-4.904L1619.318,915l-12.576,4.904
					C1603.87,921.024,1600.91,921.556,1597.999,921.556z M1605.876,917.687h0.01H1605.876z M1591.653,857.169l-8.14,3.174
					c-4.823,1.881-8.625,5.527-10.705,10.268c-2.081,4.74-2.19,10.007-0.31,14.829l7.416,19.015
					c3.882,9.955,15.144,14.892,25.096,11.015l8.14-3.176L1591.653,857.169z"/>
			</g>
			<path style="fill:#233264;" d="M1646.498,719.888l16.686-6.508c0.743-0.29,1.111-1.127,0.821-1.87l0,0
				c-0.29-0.743-1.127-1.111-1.87-0.821l-16.686,6.508c-0.743,0.29-1.111,1.127-0.821,1.87l0,0
				C1644.918,719.81,1645.755,720.177,1646.498,719.888z"/>
			<path style="fill:#233264;" d="M1649.368,727.247l16.687-6.508c0.743-0.29,1.111-1.127,0.821-1.87l0,0
				c-0.29-0.743-1.127-1.111-1.87-0.821l-16.687,6.507c-0.743,0.29-1.111,1.127-0.821,1.871l0,0
				C1647.788,727.169,1648.625,727.536,1649.368,727.247z"/>
			<path style="fill:#233264;" d="M1652.238,734.606l16.686-6.508c0.743-0.29,1.111-1.127,0.821-1.87l0,0
				c-0.29-0.743-1.127-1.111-1.87-0.821l-16.687,6.507c-0.743,0.29-1.111,1.127-0.821,1.87l0,0
				C1650.657,734.528,1651.495,734.896,1652.238,734.606z"/>
			<path style="fill:#233264;" d="M1655.108,741.965l16.686-6.508c0.743-0.29,1.111-1.127,0.821-1.87l0,0
				c-0.29-0.743-1.127-1.111-1.87-0.821l-16.686,6.507c-0.743,0.29-1.111,1.127-0.821,1.871l0,0
				C1653.527,741.887,1654.365,742.255,1655.108,741.965z"/>
			<path style="fill:#233264;" d="M1657.978,749.324l16.687-6.508c0.743-0.29,1.111-1.127,0.821-1.87l0,0
				c-0.29-0.743-1.127-1.111-1.87-0.821l-16.687,6.508c-0.743,0.29-1.111,1.127-0.821,1.87l0,0
				C1656.397,749.246,1657.235,749.614,1657.978,749.324z"/>
			<path style="fill:#233264;" d="M1660.848,756.683l16.687-6.508c0.743-0.29,1.111-1.127,0.821-1.87l0,0
				c-0.29-0.743-1.127-1.111-1.871-0.821l-16.686,6.508c-0.743,0.29-1.111,1.127-0.821,1.871l0,0
				C1659.267,756.605,1660.105,756.973,1660.848,756.683z"/>
			<path style="fill:#233264;" d="M1663.718,764.042l16.686-6.507c0.743-0.29,1.111-1.127,0.821-1.87l0,0
				c-0.29-0.743-1.127-1.111-1.87-0.821l-16.686,6.508c-0.743,0.29-1.111,1.127-0.821,1.87l0,0
				C1662.137,763.964,1662.975,764.332,1663.718,764.042z"/>
			<path style="fill:#233264;" d="M1666.588,771.401l16.687-6.507c0.743-0.29,1.111-1.127,0.821-1.87l0,0
				c-0.29-0.743-1.127-1.111-1.87-0.821l-16.687,6.508c-0.743,0.29-1.111,1.127-0.821,1.87l0,0
				C1665.007,771.323,1665.845,771.691,1666.588,771.401z"/>
			<path style="fill:#233264;" d="M1669.458,778.76l16.687-6.508c0.743-0.29,1.111-1.127,0.821-1.87l0,0
				c-0.29-0.743-1.127-1.111-1.87-0.821l-16.686,6.508c-0.743,0.29-1.111,1.127-0.821,1.87l0,0
				C1667.877,778.682,1668.715,779.05,1669.458,778.76z"/>
			<path style="fill:#233264;" d="M1672.328,786.119l16.686-6.508c0.743-0.29,1.111-1.127,0.821-1.87l0,0
				c-0.29-0.743-1.127-1.111-1.87-0.821l-16.687,6.507c-0.743,0.29-1.111,1.127-0.821,1.87l0,0
				C1670.747,786.042,1671.584,786.409,1672.328,786.119z"/>
			<polygon style="fill:#FFFFFF;" points="1697.679,719.22 1810.236,675.324 1813.368,660.189 1692.969,707.142 			"/>
			<path style="fill:#233264;" d="M1717.858,722.366l33.715-13.148c2.108-0.822,3.151-3.198,2.329-5.306l-9.646-24.733
				c-0.822-2.108-3.198-3.151-5.306-2.329l-33.715,13.148c-2.108,0.822-3.151,3.198-2.329,5.306l9.646,24.733
				C1713.374,722.146,1715.75,723.188,1717.858,722.366z"/>
		</g>
		<g>
			<path style="fill:#233264;" d="M1304.042,707.699c0,0-214.657,298.099-103.003,389.449
				c68.945,56.409,342.284-146.785,342.284-146.785l-43.974-66.273l-164.598,57.317L1304.042,707.699z"/>
			<path style="fill:#121D3D;" d="M1206.717,1021.555c-0.433,0-0.871-0.117-1.264-0.364c-1.114-0.699-1.45-2.169-0.75-3.283
				c9.246-14.723,35.465-33.023,77.929-54.397c31.428-15.817,60.579-27.552,60.87-27.669c1.223-0.487,2.607,0.104,3.096,1.323
				c0.49,1.221-0.103,2.607-1.323,3.097c-1.152,0.462-115.468,46.626-136.54,80.179
				C1208.283,1021.16,1207.509,1021.555,1206.717,1021.555z"/>
			<g>
				<path style="fill:#DA8C8D;" d="M1503.634,890.549l25.082-14.855c12.988-10.864,30.052-15.553,46.767-12.852l13.284,2.147
					c0,0,15.323,38.22,16.216,45.458c0.893,7.239-57.92,15.698-57.92,15.698l-13.102,10.108L1503.634,890.549z"/>
				<g>
					<path style="fill:#233264;" d="M1569.808,880.265c-0.615,0-1.137-0.474-1.186-1.098c-0.051-0.655,0.439-1.229,1.094-1.279
						l22.58-1.764c0.654-0.063,1.229,0.438,1.28,1.094c0.051,0.655-0.439,1.229-1.094,1.279l-22.58,1.764
						C1569.87,880.264,1569.839,880.265,1569.808,880.265z"/>
					<path style="fill:#233264;" d="M1575.352,892.912c-0.599,0-1.115-0.451-1.182-1.06c-0.072-0.653,0.399-1.241,1.053-1.314
						l21.877-2.41c0.652-0.073,1.241,0.4,1.313,1.054c0.072,0.653-0.399,1.241-1.053,1.314l-21.877,2.41
						C1575.439,892.91,1575.395,892.912,1575.352,892.912z"/>
					<path style="fill:#233264;" d="M1580.203,906.773c-0.559,0-1.057-0.396-1.167-0.965c-0.125-0.646,0.297-1.27,0.943-1.395
						l21.604-4.179c0.643-0.123,1.27,0.297,1.395,0.943c0.125,0.646-0.297,1.27-0.943,1.395l-21.604,4.179
						C1580.354,906.766,1580.278,906.773,1580.203,906.773z"/>
				</g>
			</g>
		</g>
	</g>
	<path style="fill:#233264;" d="M1716.684,781.52l69.613,237.654l76.935,220.165l-82.727,32.234
		c0,0-111.661-185.322-126.188-244.428C1639.789,968.038,1716.684,781.52,1716.684,781.52z"/>
	<path style="fill:#233264;" d="M1503.634,1081.885c-5.77,0-11.54,0-17.309,0c-12.745,0-25.49,0-38.234,0
		c-12.84,0-25.679,0-38.519,0c-6.183,0-12.368-0.05-18.551,0c-8.743,0.071-16.646,6.075-18.706,14.654
		c-0.81,3.375-0.426,6.673-0.018,10.057c0.3,2.489,0.628,4.974,0.979,7.456c1.642,11.609,3.861,23.142,6.727,34.512
		c3.389,13.443,7.706,26.656,13.198,39.391c5.727,13.281,12.812,26.008,21.675,37.461c8.88,11.475,19.612,21.557,32.091,29.029
		c13.619,8.155,28.978,12.869,44.748,14.382c16.811,1.614,34.19-0.053,50.151-5.699c14.107-4.991,26.916-13.048,37.786-23.307
		c10.576-9.983,19.271-21.876,26.374-34.532c7.003-12.478,12.535-25.77,16.99-39.355c4.01-12.23,7.148-24.741,9.578-37.378
		c1.024-5.324,1.92-10.672,2.692-16.037c0.895-6.22,2.39-12.795-0.135-18.813c-3.028-7.217-10.136-11.796-17.923-11.821
		c-2.145-0.007-4.29,0-6.435,0c-10.674,0-21.348,0-32.021,0c-13.672,0-27.343,0-41.015,0c-9.92,0-19.84,0-29.76,0
		C1506.541,1081.885,1505.087,1081.885,1503.634,1081.885c-2.281,0-2.285,3.545,0,3.545c5.572,0,11.144,0,16.716,0
		c12.437,0,24.874,0,37.311,0c12.884,0,25.768,0,38.652,0c6.907,0,13.813-0.011,20.72,0c6.552,0.01,12.637,3.774,15.017,10.008
		c1.319,3.453,1.031,6.869,0.583,10.44c-0.3,2.394-0.548,4.218-0.916,6.718c-1.67,11.369-3.891,22.662-6.727,33.798
		c-3.33,13.075-7.492,25.983-12.824,38.385c-5.612,13.052-12.496,25.624-21.086,36.964c-8.557,11.296-18.96,21.301-31.036,28.771
		c-13.035,8.063-27.819,12.97-43.044,14.62c-16.488,1.786-33.486,0.384-49.231-4.947c-13.741-4.652-26.264-12.401-36.838-22.303
		c-10.342-9.685-18.788-21.204-25.711-33.531c-6.828-12.158-12.195-25.089-16.508-38.337c-3.948-12.127-7.024-24.533-9.398-37.061
		c-1.003-5.291-1.879-10.607-2.632-15.939c-0.319-2.26-0.586-4.308-0.88-6.758c-0.402-3.363-0.788-6.627,0.254-9.932
		c2.089-6.631,8.363-10.877,15.211-10.894c2.222-0.006,4.444,0,6.666,0c10.635,0,21.269,0,31.904,0c13.446,0,26.892,0,40.338,0
		c9.725,0,19.45,0,29.175,0c1.428,0,2.857,0,4.285,0C1505.915,1085.431,1505.919,1081.885,1503.634,1081.885z"/>
</g>
<g>
	<path style="fill:#233264;" d="M3176.962,678.332c0,0,41.531,28.219,143.873,173.901c6.593,9.385,152.67-213.006,152.67-213.006
		l52.464,14.283c0,0-117.706,380.381-213.744,335.571c-96.038-44.81-196.524-135.529-196.524-135.529L3176.962,678.332z"/>
	<path style="fill:#233264;" d="M3119.093,644.691c-19.424-9.446-43.361-9.848-66.913-11.341l0.01-0.404
		c-6.804-0.286-13.58-0.391-20.308-0.33c-6.728-0.062-13.504,0.044-20.308,0.33l0.01,0.404
		c-23.552,1.494-47.075,2.798-66.914,11.341c-196.846,84.775-60.586,513.467-60.586,513.467h140.41h14.776h140.41
		C3179.679,1158.158,3299.057,732.207,3119.093,644.691z"/>
	<path style="fill:#F6B233;" d="M3140.144,653.081l-24.036,180.048h-172.119l-23.528-176.245c-0.783-5.868-7.23-9.106-12.405-6.231
		l-24.235,13.465c-2.667,1.481-4.32,4.292-4.32,7.342v161.669v325.029h304.761l-3.666-325.029V669.922
		c0-2.101-1.139-4.036-2.975-5.057l-28.934-16.076C3145.123,646.809,3140.683,649.039,3140.144,653.081z"/>
	<path style="fill:#DA8C8D;" d="M2964.132,639.761l1.221,0.708c40.26,23.325,90.069,22.692,129.724-1.648v0
		C3095.077,638.821,3044.443,615.404,2964.132,639.761z"/>
	<path style="fill:#F6B233;" d="M2879.386,1076.383c0,0-46.736,251.038-46.736,278.325h406.658l-56.112-294.692L2879.386,1076.383z"
		/>
	<g>
		<path style="fill:#DA8C8D;" d="M3473.505,639.227l10.729-34.729l20.125-21.734c3.071-3.317,8.309-3.336,11.405-0.042
			l19.933,21.208c2.341,2.491,3.245,6.005,2.398,9.317l-2.759,10.78c-2.075,8.105-6.662,15.345-13.103,20.683l-7.07,5.859
			L3473.505,639.227z"/>
		<g>
			<g>
				<defs>
					<polygon id="XMLID_2_" points="3479.477,516.981 3533.841,205.348 3584.807,203.313 3569.518,531.208 					"/>
				</defs>
				<use xlink:href="#XMLID_2_"  style="overflow:visible;fill:#FFFFFF;"/>
				<clipPath id="XMLID_00000039127905252198748510000000298152093253454487_">
					<use xlink:href="#XMLID_2_"  style="overflow:visible;"/>
				</clipPath>
				<path style="clip-path:url(#XMLID_00000039127905252198748510000000298152093253454487_);fill:#233264;" d="M3560.031,532.002
					c-0.021,0-0.04-0.001-0.061-0.002c-0.438-0.033-0.765-0.414-0.731-0.851l24.777-327.895c0.032-0.437,0.411-0.765,0.851-0.731
					c0.438,0.033,0.765,0.414,0.731,0.851l-24.777,327.895C3560.79,531.685,3560.442,532.002,3560.031,532.002z"/>
			</g>
			<path style="fill:#EE677A;" d="M3479.477,516.981l-11.917,62.051c-1.921,10.004,2.74,20.121,11.593,25.161l31.427,17.89
				c8.389,4.775,18.47,5.56,27.496,2.141l12.724-4.82c7.507-2.844,12.694-9.771,13.308-17.775l5.409-70.421L3479.477,516.981z
				 M3535.543,601.079L3535.543,601.079c-7.432,2.398-15.526,1.601-22.348-2.2l-17.153-9.556
				c-9.982-5.561-15.512-16.691-13.917-28.005l1.34-9.501c1.096-7.769,8.589-12.95,16.245-11.23l38.073,8.551
				c11.958,2.686,20.01,13.899,18.733,26.088v0C3555.258,587.234,3547.034,597.371,3535.543,601.079z"/>
		</g>
		<path style="fill:#DA8C8D;" d="M3500.693,586.722l3.964,21.813l14.339,10.618c4.384,3.247,10.052,4.212,15.264,2.599l0,0
			c1.118-0.346,1.976-1.248,2.266-2.381l2.929-11.443l-23.347-24.841c-3.282-3.492-8.835-3.471-12.091,0.045L3500.693,586.722z"/>
		<path style="fill:#DA8C8D;" d="M3483.554,606.698l33.275-12.806c0,0-0.476,11.892-1.903,14.271
			c-1.427,2.378-22.834,17.125-22.834,17.125S3482.626,620.455,3483.554,606.698z"/>
		<path style="fill:#233264;" d="M3505.962,616.204c-0.275,0-0.544-0.142-0.69-0.396c-0.216-0.376-0.095-0.853,0.277-1.075
			l0.17-0.091c2.296-1.21,9.825-5.492,10.322-9.768c0.358-3.084,0.294-6.329,0.177-8.507c-0.017-0.321-0.182-0.606-0.45-0.78
			c-0.268-0.173-0.595-0.206-0.891-0.092l-11.627,4.475c-0.408,0.16-0.868-0.046-1.025-0.456c-0.158-0.409,0.046-0.869,0.455-1.026
			l11.627-4.475c0.776-0.3,1.625-0.211,2.323,0.241c0.701,0.454,1.128,1.193,1.174,2.027c0.119,2.241,0.185,5.581-0.187,8.776
			c-0.569,4.909-7.993,9.32-11.158,10.989l-0.108,0.058C3506.228,616.171,3506.094,616.204,3505.962,616.204z"/>
		<path style="fill:#233264;" d="M3528.574,623.487c-7.106,0-13.271-6.07-13.356-6.155c-0.31-0.31-0.309-0.813,0.001-1.122
			c0.311-0.31,0.812-0.31,1.122,0.001c0.027,0.027,2.813,2.788,6.652,4.452c4.995,2.164,9.365,1.535,12.988-1.87
			c0.318-0.299,0.821-0.285,1.122,0.035c0.301,0.319,0.285,0.822-0.034,1.122C3534.301,622.551,3531.364,623.487,3528.574,623.487z"
			/>
	</g>
	<path style="fill:#233264;" d="M3137.439,1066.74h-208.883c-6.447,0-11.787-5.041-12.158-11.478l-10.19-176.648
		c-0.195-3.38,0.978-6.598,3.302-9.059c2.324-2.463,5.47-3.819,8.856-3.819h225.37c3.336,0,6.448,1.321,8.765,3.722
		c2.315,2.4,3.525,5.558,3.406,8.89l-6.298,176.647C3149.375,1061.581,3144.029,1066.74,3137.439,1066.74z M2918.366,868.117
		c-2.725,0-5.255,1.091-7.125,3.072c-1.87,1.981-2.813,4.569-2.656,7.289l10.19,176.647c0.298,5.178,4.595,9.233,9.781,9.233
		h208.883c5.301,0,9.602-4.15,9.791-9.448l6.298-176.647c0.096-2.682-0.878-5.222-2.741-7.152c-1.863-1.931-4.367-2.994-7.051-2.994
		H2918.366z"/>
	<g>
		<g>
			<path style="fill:#233264;" d="M2931.667,908.226c-7.161,0-12.986-5.826-12.986-12.987c0-7.161,5.825-12.986,12.986-12.986
				s12.986,5.825,12.986,12.986C2944.653,902.399,2938.828,908.226,2931.667,908.226z M2931.667,885.088
				c-5.597,0-10.15,4.554-10.15,10.15c0,5.598,4.554,10.151,10.15,10.151s10.15-4.554,10.15-10.151
				C2941.817,889.642,2937.264,885.088,2931.667,885.088z"/>
			<path style="fill:#233264;" d="M3128.579,908.226c-7.161,0-12.986-5.826-12.986-12.987c0-7.161,5.825-12.986,12.986-12.986
				s12.987,5.825,12.987,12.986C3141.566,902.399,3135.74,908.226,3128.579,908.226z M3128.579,885.088
				c-5.597,0-10.15,4.554-10.15,10.15c0,5.598,4.554,10.151,10.15,10.151c5.598,0,10.151-4.554,10.151-10.151
				C3138.73,889.642,3134.177,885.088,3128.579,885.088z"/>
		</g>
		<g>
			<path style="fill:#233264;" d="M2943.235,1050.225c-7.161,0-12.986-5.826-12.986-12.987s5.825-12.986,12.986-12.986
				s12.987,5.825,12.987,12.986S2950.396,1050.225,2943.235,1050.225z M2943.235,1027.087c-5.597,0-10.15,4.554-10.15,10.15
				c0,5.598,4.554,10.151,10.15,10.151c5.598,0,10.151-4.554,10.151-10.151C2953.387,1031.641,2948.833,1027.087,2943.235,1027.087z
				"/>
			<path style="fill:#233264;" d="M3125.325,1050.225c-7.161,0-12.986-5.826-12.986-12.987s5.825-12.986,12.986-12.986
				s12.987,5.825,12.987,12.986S3132.486,1050.225,3125.325,1050.225z M3125.325,1027.087c-5.597,0-10.15,4.554-10.15,10.15
				c0,5.598,4.554,10.151,10.15,10.151c5.598,0,10.151-4.554,10.151-10.151C3135.477,1031.641,3130.923,1027.087,3125.325,1027.087z
				"/>
		</g>
	</g>
	<path style="fill:#233264;" d="M2918.364,868.599c-0.852,0-1.579-0.647-1.662-1.512l-20.279-210.735
		c-0.089-0.919,0.585-1.736,1.504-1.824c0.931-0.093,1.736,0.585,1.824,1.504l20.279,210.735c0.089,0.919-0.585,1.736-1.504,1.824
		C2918.472,868.597,2918.418,868.599,2918.364,868.599z"/>
	<path style="fill:#233264;" d="M3143.738,868.599c-0.049,0-0.098-0.002-0.146-0.006c-0.92-0.08-1.601-0.891-1.521-1.811
		l18.273-210.735c0.08-0.92,0.911-1.599,1.811-1.521c0.92,0.08,1.601,0.89,1.521,1.81l-18.273,210.735
		C3145.326,867.942,3144.597,868.599,3143.738,868.599z"/>
	<g>
		<path style="fill:#233264;" d="M3091.613,407.389c0,0-3.087,49.414,18.271,62.58l2.93,45.206c0,0,44.81-54.306,8.124-107.786
			H3091.613z"/>
		<g>
			<polygon style="fill:#DA8C8D;" points="3093.477,640.267 2965.703,640.267 2982.99,515.175 3070.852,515.175 			"/>
			<path style="fill:#DA8C8D;" d="M3029.59,591.431L3029.59,591.431c-46.137,0-83.539-37.401-83.539-83.539v-63.703
				c0-46.137,37.402-83.539,83.539-83.539h0c46.137,0,83.539,37.402,83.539,83.539v63.703
				C3113.129,554.029,3075.727,591.431,3029.59,591.431z"/>
			<path style="fill:#233264;" d="M2997.202,461.282c0,3.648-2.957,6.605-6.605,6.605c-3.648,0-6.605-2.957-6.605-6.605
				c0-3.648,2.957-6.605,6.605-6.605C2994.245,454.677,2997.202,457.634,2997.202,461.282z"/>
			<path style="fill:#233264;" d="M3064.99,461.282c0,3.648-2.957,6.605-6.605,6.605c-3.648,0-6.605-2.957-6.605-6.605
				c0-3.648,2.957-6.605,6.605-6.605C3062.033,454.677,3064.99,457.634,3064.99,461.282z"/>
			<path style="fill:#233264;" d="M3021.349,443.944c-1.538,5.18-3.173,10.326-4.755,15.49l-4.934,15.426l-1.213,3.864
				c-0.368,1.259-0.883,2.694-1.012,3.649c-0.31,2.119,0.196,4.317,1.462,6.059c0.61,0.886,1.427,1.633,2.375,2.203
				c0.853,0.551,2.285,1.029,3.476,1.605c2.477,1.101,4.931,2.271,7.32,3.638l-0.12,0.361c-2.732-0.333-5.399-0.862-8.042-1.461
				c-0.663-0.145-1.323-0.295-1.978-0.463c-0.608-0.148-1.426-0.36-2.151-0.676c-1.467-0.63-2.792-1.621-3.86-2.846
				c-2.146-2.459-2.963-6.023-2.168-9.181c0.453-1.681,1.03-2.734,1.525-4.027l1.523-3.753l6.008-15.041
				c2.064-4.991,4.077-10.001,6.186-14.976L3021.349,443.944z"/>
			<path style="fill:#233264;" d="M2964.323,407.389c0,0,3.087,49.414-18.271,62.58v41.768c0,0-47.74-50.868-11.054-104.348
				H2964.323z"/>
			<g>
				<g>
					<circle style="fill:#DA8C8D;" cx="3123.449" cy="469.969" r="22.008"/>
					<path style="fill:#233264;" d="M3111.56,477.682c-0.193-3.031,0.573-6.092,2.021-8.876c1.455-2.772,3.817-5.267,6.807-6.707
						c2.974-1.48,6.387-1.785,9.455-1.264c3.092,0.513,5.938,1.731,8.373,3.518c-3.001-0.312-5.85-0.64-8.585-0.536
						c-2.728,0.072-5.307,0.578-7.577,1.698c-2.279,1.099-4.272,2.803-5.978,4.918
						C3114.363,472.551,3112.903,474.996,3111.56,477.682z"/>
				</g>
				<g>
					<circle style="fill:#DA8C8D;" cx="2933.193" cy="477.682" r="22.008"/>
					<path style="fill:#233264;" d="M2945.081,485.395c-1.343-2.686-2.803-5.131-4.516-7.248c-1.706-2.115-3.699-3.82-5.978-4.919
						c-2.27-1.12-4.849-1.626-7.577-1.698c-2.735-0.103-5.584,0.225-8.585,0.536c2.435-1.787,5.281-3.006,8.373-3.518
						c3.067-0.521,6.481-0.216,9.455,1.264c2.99,1.439,5.353,3.934,6.808,6.707C2944.509,479.303,2945.275,482.364,2945.081,485.395
						z"/>
				</g>
			</g>
			<path style="fill:#233264;" d="M3078.467,516.974c-12.768-12.531-41.126-11.593-51.465-10.782
				c-10.34-0.812-38.698-1.749-51.466,10.782c-15.771,15.479-13.472,23.85-13.472,23.85s47.265-9.589,64.937-29.005
				c17.672,19.416,64.937,29.005,64.937,29.005S3094.239,532.454,3078.467,516.974z"/>
			<path style="fill:#233264;" d="M3005.926,561.382c0,0,20.843,7.561,42.152-13.617
				C3048.078,547.765,3033.135,579.68,3005.926,561.382z"/>
			<path style="fill:#233264;" d="M2968.826,443.879c0,0,21.467-9.738,38.564-4.862l0,0c1.109-4.145-1.873-8.258-6.157-8.49
				c-7.085-0.383-17.379-0.25-25.218,2.711C2971.636,434.893,2968.826,439.197,2968.826,443.879L2968.826,443.879z"/>
			<path style="fill:#233264;" d="M3077.784,443.879c0,0-21.467-9.738-38.564-4.862l0,0c-1.109-4.145,1.873-8.258,6.157-8.49
				c7.085-0.383,17.379-0.25,25.217,2.711C3074.974,434.893,3077.784,439.197,3077.784,443.879L3077.784,443.879z"/>
			<path style="fill:#233264;" d="M3029.591,593.236c-0.02,0-0.04,0-0.06-0.001c-37.698-1.225-54.928-19.911-55.643-20.706
				c-0.666-0.741-0.606-1.882,0.135-2.549c0.74-0.666,1.88-0.607,2.547,0.133l0,0c0.041,0.046,4.252,4.639,12.86,9.315
				c7.943,4.314,21.368,9.586,40.218,10.199c0.996,0.032,1.777,0.866,1.745,1.862
				C3031.362,592.466,3030.561,593.236,3029.591,593.236z"/>
		</g>
		<path style="fill:#233264;" d="M2934.998,407.389c0,0,12.724-20.541,35.59-22.337c22.866-1.797-16.903,77.611-18.025,78.968
			C2951.441,465.376,2934.998,407.389,2934.998,407.389z"/>
		<path style="fill:#233264;" d="M3120.938,407.389c0,0-16.902-27.438-32.376-22.368c-15.475,5.07,22.998,66.431,22.998,66.431
			S3125.998,447.419,3120.938,407.389z"/>
	</g>
	<path style="fill:#121D3D;" d="M3320.837,938.511c-0.786,0-1.557-0.39-2.011-1.102c-14.262-22.406-13.506-44.721-10.359-59.496
		c3.397-15.956,10.08-26.521,10.362-26.963c0.71-1.108,2.183-1.43,3.289-0.723c1.107,0.709,1.431,2.182,0.723,3.289
		c-0.32,0.504-25.578,41.146,0.003,81.336c0.706,1.109,0.379,2.581-0.73,3.287C3321.717,938.391,3321.274,938.511,3320.837,938.511z
		"/>
	<g>
		<path style="fill:#233264;" d="M2879.501,671.46c0,0-251.13,177.565-231.648,305.059
			c10.946,71.634,205.864,241.874,205.864,241.874l13.143-64.903l-94.4-204.84l107.041-64.964V671.46z"/>
	</g>
	<g>
		<path style="fill:#DA8C8D;" d="M2865.914,1158.158c0,0,56.083,60.394,51.469,62.445s-22.56-1.538-34.353-9.742
			c0,0-21.213,67.19-32.768,68c-11.555,0.81-6.987,0.49-6.987,0.49l10.441-60.958L2865.914,1158.158z"/>
		<path style="fill:#233264;" d="M2883.03,1212.052c-0.315,0-0.631-0.125-0.865-0.372c-0.393-0.416-9.651-10.222-12.398-14.687
			c-0.345-0.56-0.17-1.293,0.39-1.638c0.561-0.345,1.294-0.17,1.638,0.39c2.619,4.256,12.007,14.198,12.102,14.298
			c0.451,0.478,0.431,1.231-0.047,1.684C2883.618,1211.944,2883.324,1212.052,2883.03,1212.052z"/>
	</g>
	<path style="fill:#121D3D;" d="M2772.458,951.032c-1.104,0-2.093-0.771-2.328-1.893c-6.899-32.855-55.988-53.333-56.482-53.536
		c-1.217-0.499-1.799-1.89-1.301-3.106c0.499-1.217,1.887-1.798,3.105-1.301c0.527,0.216,13.068,5.396,26.701,14.938
		c18.262,12.782,29.548,27.315,32.637,42.025c0.271,1.287-0.554,2.549-1.841,2.819
		C2772.784,951.016,2772.62,951.032,2772.458,951.032z"/>
</g>
<g>
	<polygon style="fill:#DA8C8D;" points="712.485,630.146 600.101,630.146 615.306,520.121 692.585,520.121 	"/>
	<path style="fill:#233264;" d="M743.505,630.17c-20.717-6.112-43.361-9.848-66.913-11.341l0.01-0.404
		c-6.804-0.286-13.58-0.391-20.308-0.33c-6.728-0.062-13.504,0.044-20.308,0.33l0.01,0.404c-23.552,1.494-46.197,5.23-66.913,11.341
		c-269.217,79.423-60.586,513.467-60.586,513.467h140.41h14.776h140.41C804.091,1143.637,1012.722,709.593,743.505,630.17z"/>
	<path style="fill:#DA8C8D;" d="M656.293,587.192L656.293,587.192c-40.58,0-73.477-32.896-73.477-73.476v-56.031
		c0-40.58,32.896-73.476,73.476-73.476h0c40.58,0,73.476,32.897,73.476,73.476v56.031
		C729.77,554.296,696.873,587.192,656.293,587.192z"/>
	<path style="fill:#F6B233;" d="M764.556,638.56L740.52,818.608H568.401l-23.528-176.245c-0.783-5.868-7.23-9.106-12.405-6.231
		l-24.235,13.465c-2.666,1.481-4.32,4.292-4.32,7.342v161.669v325.029h304.761l-3.665-325.029V655.401
		c0-2.101-1.139-4.036-2.975-5.057l-28.934-16.076C769.535,632.288,765.095,634.518,764.556,638.56z"/>
	<path style="fill:#233264;" d="M656.274,473.633c-1.353,4.556-2.79,9.082-4.182,13.625l-4.34,13.568l-1.067,3.399
		c-0.323,1.107-0.777,2.369-0.89,3.21c-0.272,1.864,0.172,3.797,1.286,5.329c0.537,0.779,1.256,1.437,2.089,1.938
		c0.75,0.485,2.01,0.905,3.058,1.411c2.179,0.968,4.337,1.997,6.438,3.2l-0.105,0.317c-2.403-0.293-4.748-0.758-7.074-1.285
		c-0.583-0.127-1.164-0.259-1.74-0.407c-0.535-0.13-1.254-0.317-1.892-0.594c-1.29-0.554-2.456-1.426-3.395-2.503
		c-1.888-2.163-2.607-5.298-1.907-8.075c0.398-1.478,0.906-2.404,1.342-3.542l1.339-3.301l5.284-13.229
		c1.816-4.39,3.586-8.797,5.441-13.172L656.274,473.633z"/>
	<path style="fill:#233264;" d="M656.048,588.865c-28.673,0-47.893-17.387-48.699-18.129c-0.679-0.625-0.723-1.682-0.098-2.361
		c0.625-0.68,1.682-0.724,2.362-0.1c0.188,0.173,19.112,17.247,46.442,17.247c0.081,0,0.153,0.001,0.238,0
		c0.921,0,1.668,0.745,1.672,1.666c0.003,0.923-0.743,1.674-1.666,1.678C656.216,588.865,656.131,588.865,656.048,588.865z"/>
	<path style="fill:#233264;" d="M598.887,425.318c0,0,2.715,43.462-16.071,55.042v36.737c0,0-47.333-47.486-15.065-94.524
		L598.887,425.318z"/>
	<path style="fill:#233264;" d="M710.846,425.318c0,0-2.715,43.462,16.071,55.042l2.577,39.761c0,0,41.703-57.203,9.436-104.241
		L710.846,425.318z"/>
	<path style="fill:#DA8C8D;" d="M588.544,625.24l14.645,8.485c31.991,18.534,71.569,18.031,103.078-1.309l13.222-8.116
		C719.489,624.3,668.855,600.883,588.544,625.24z"/>
	<path style="fill:#F6B233;" d="M503.913,1075.658c0,0-46.736,251.038-46.736,278.325h406.658l-56.112-294.692L503.913,1075.658z"/>
	<path style="fill:#233264;" d="M774.49,811.969c-0.044,0-0.088-0.002-0.132-0.005c-0.92-0.072-1.608-0.877-1.537-1.798
		l12.5-159.796c0.073-0.92,0.885-1.605,1.797-1.537c0.92,0.072,1.608,0.877,1.537,1.797l-12.5,159.797
		C776.086,811.304,775.354,811.969,774.49,811.969z"/>
	<path style="fill:#233264;" d="M534.471,823.453c-0.867,0-1.601-0.67-1.666-1.549l-12.3-166.618
		c-0.068-0.921,0.624-1.723,1.544-1.791c0.924-0.058,1.723,0.624,1.79,1.544l12.3,166.618c0.068,0.921-0.623,1.723-1.544,1.79
		C534.554,823.452,534.512,823.453,534.471,823.453z"/>
	<g>
		<g>
			
				<ellipse transform="matrix(0.2279 -0.9737 0.9737 0.2279 102.7673 1090.3138)" style="fill:#DA8C8D;" cx="738.847" cy="480.36" rx="19.357" ry="19.357"/>
			<path style="fill:#233264;" d="M728.39,487.144c-0.17-2.665,0.504-5.358,1.778-7.807c1.28-2.438,3.357-4.633,5.987-5.899
				c2.616-1.302,5.618-1.57,8.316-1.112c2.719,0.451,5.223,1.523,7.364,3.094c-2.64-0.274-5.145-0.563-7.551-0.472
				c-2.4,0.064-4.668,0.509-6.664,1.494c-2.005,0.966-3.757,2.466-5.258,4.326C730.855,482.632,729.571,484.781,728.39,487.144z"/>
		</g>
		<g>
			<circle style="fill:#DA8C8D;" cx="571.507" cy="487.144" r="19.357"/>
			<path style="fill:#233264;" d="M581.963,493.928c-1.181-2.363-2.465-4.513-3.972-6.375c-1.501-1.861-3.253-3.36-5.258-4.326
				c-1.997-0.985-4.265-1.43-6.664-1.494c-2.406-0.091-4.911,0.198-7.551,0.472c2.141-1.572,4.645-2.644,7.364-3.095
				c2.698-0.458,5.7-0.19,8.316,1.112c2.63,1.266,4.708,3.461,5.987,5.899C581.459,488.57,582.133,491.263,581.963,493.928z"/>
		</g>
	</g>
	<g>
		<polygon style="fill:#FFFFFF;" points="908.831,1350.208 871.35,1350.208 301.806,560.361 327.511,541.539 		"/>
		<path style="fill:#233264;" d="M404.989,445.687L191.598,601.933c-6.02,4.408-14.474,3.101-18.882-2.919L131.1,542.178
			c-4.408-6.02-3.101-14.474,2.919-18.883L347.41,367.049c6.02-4.408,14.474-3.101,18.882,2.919l41.616,56.836
			C412.316,432.825,411.009,441.279,404.989,445.687z"/>
		<path style="fill:#233264;" d="M184.356,649.287l-50.229-68.601l16.384-11.996c1.053-0.773,2.532-0.544,3.303,0.51
			c0.771,1.053,0.543,2.532-0.51,3.303l-12.571,9.205l44.645,60.973l260.68-190.872l-44.645-60.973l-17.482,12.8
			c-1.054,0.772-2.533,0.543-3.303-0.51c-0.771-1.053-0.542-2.532,0.51-3.303l21.296-15.593l50.23,68.601L184.356,649.287z"/>
		<path style="fill:#233264;" d="M330.33,555.832l-17.385,12.729c-5.589,4.092-13.437,2.879-17.529-2.71l0,0
			c-4.092-5.589-2.879-13.437,2.71-17.529l17.385-12.729c5.589-4.092,13.437-2.879,17.529,2.71l0,0
			C337.132,543.892,335.919,551.74,330.33,555.832z"/>
	</g>
	<g>
		<g>
			<path style="fill:#DA8C8D;" d="M642.707,888.586l-36.356-11.282l-21.507-16.527c-5.77-4.434-13.628-5.001-19.975-1.441
				l-16.208,9.091c-8.55,4.796-12.041,15.314-8.055,24.271h0c3.78,8.493,9.322,16.086,16.258,22.276l6.542,5.838
				c4.269,3.809,9.944,5.644,15.635,5.056l21.06-2.177l13.566,8.663C613.667,932.352,648.025,890.236,642.707,888.586z"/>
			<g>
				<path style="fill:#233264;" d="M540.608,894.115c-0.472,0-0.933-0.234-1.202-0.663c-0.417-0.663-0.217-1.539,0.446-1.955
					l18.84-11.841c0.662-0.415,1.538-0.217,1.955,0.446c0.417,0.663,0.217,1.539-0.446,1.955l-18.84,11.841
					C541.126,894.045,540.866,894.115,540.608,894.115z"/>
				<path style="fill:#233264;" d="M549.791,905.955c-0.472,0-0.933-0.234-1.202-0.663c-0.417-0.663-0.217-1.539,0.446-1.956
					l18.841-11.84c0.662-0.415,1.539-0.217,1.955,0.446c0.416,0.663,0.217,1.539-0.446,1.956l-18.841,11.84
					C550.31,905.885,550.049,905.955,549.791,905.955z"/>
				<path style="fill:#233264;" d="M559.211,917.669c-0.472,0-0.933-0.234-1.202-0.663c-0.417-0.663-0.217-1.539,0.446-1.956
					l18.841-11.84c0.663-0.415,1.538-0.217,1.955,0.446c0.417,0.663,0.217,1.539-0.446,1.956l-18.841,11.84
					C559.73,917.599,559.469,917.669,559.211,917.669z"/>
			</g>
		</g>
		<g>
			<path style="fill:#233264;" d="M857.611,723.783c0,0,176.879,261.086,54.195,353.937
				c-71.031,53.759-305.455-134.342-305.455-134.342l43.974-66.273l164.598,57.317L857.611,723.783z"/>
			<path style="fill:#121D3D;" d="M925.248,992.019c-0.818,0-1.615-0.422-2.058-1.179c-21.669-37.038-107.847-53.914-108.714-54.08
				c-1.292-0.247-2.138-1.495-1.891-2.786c0.247-1.291,1.49-2.136,2.786-1.892c0.222,0.043,22.434,4.34,47.099,13.304
				c33.41,12.142,55.222,26.626,64.831,43.05c0.664,1.135,0.282,2.593-0.853,3.257C926.07,991.915,925.656,992.019,925.248,992.019z
				"/>
		</g>
	</g>
	<g>
		<path style="fill:#233264;" d="M442.998,753.193c0,0-78.818,216.923-38.912,372.172c24.209,94.18,302.685-11.928,302.685-11.928
			l-33.72-62.047l-177.998-16.156L442.998,753.193z"/>
		<g>
			<path style="fill:#DA8C8D;" d="M675.566,1056.017l23.877,2.802c2.663,0.312,5.36,0.159,7.97-0.453l10.777-2.526
				c7.791-1.826,15.921,1.151,20.691,7.575l7.85,10.573c5.915,7.967,5.96,18.856,0.11,26.871l0,0
				c-2.836,3.886-7.358,6.184-12.169,6.184h-23.812h-7.564L675.566,1056.017z"/>
			<g>
				<path style="fill:#233264;" d="M738.068,1072.644c-0.73,0-1.351-0.561-1.412-1.302c-0.064-0.78,0.516-1.465,1.297-1.529
					l5.525-0.455c0.776-0.08,1.465,0.516,1.529,1.297c0.065,0.78-0.516,1.465-1.297,1.529l-5.525,0.455
					C738.146,1072.643,738.107,1072.644,738.068,1072.644z"/>
				<path style="fill:#233264;" d="M743.593,1080.992c-0.73,0-1.351-0.561-1.412-1.302c-0.064-0.78,0.517-1.466,1.297-1.529
					l5.525-0.454c0.773-0.08,1.465,0.516,1.529,1.297c0.065,0.78-0.517,1.466-1.297,1.529l-5.525,0.454
					C743.671,1080.991,743.632,1080.992,743.593,1080.992z"/>
				<path style="fill:#233264;" d="M731.808,1064.354c-0.731,0-1.351-0.561-1.412-1.302c-0.065-0.78,0.517-1.466,1.297-1.529
					l5.525-0.454c0.774-0.083,1.466,0.516,1.529,1.297c0.064,0.78-0.517,1.466-1.297,1.529l-5.525,0.454
					C731.886,1064.354,731.847,1064.354,731.808,1064.354z"/>
			</g>
		</g>
	</g>
	<path style="fill:#233264;" d="M686.217,433.995c-6.509,1.322-13.647,2.122-19.472-1.07c-5.824-3.192-8.891-11.912-4.269-16.681
		c-10.809,12.321-25.583,21.108-41.569,24.723c-1.847,0.418-3.893,0.742-5.545-0.184c-1.693-0.95-2.48-2.947-2.929-4.835
		c-1.158-4.865-0.888-10.061,0.768-14.78c-6.851,10.196-17.453,17.81-29.304,21.045c-6.408,1.749-13.72,2.112-19.257-1.559
		c-5.88-3.898-8.317-11.414-8.63-18.461c-0.567-12.749,4.538-25.321,12.385-35.385c7.847-10.064,18.285-17.831,29.28-24.311
		c11.188-6.594,23.148-12.005,35.751-15.139c29.569-7.351,60.88-1.795,89.939,7.364c10.719,3.378,22.058,7.838,28.086,17.323
		c3.591,5.65,4.849,12.491,5.109,19.18c0.323,8.317-0.845,16.858-4.701,24.234c-3.856,7.376-10.649,13.462-18.786,15.216
		c-3.41,0.735-7,0.6-10.361-0.32c-3.225-0.883-5.903-2.67-8.813-4.227c-2.349-1.256-4.429-1.449-6.839-0.18
		c-3.108,1.637-5.918,3.515-9.231,4.787C694.071,432.182,690.157,433.195,686.217,433.995z"/>
	<circle style="fill:#233264;" cx="621.493" cy="473.576" r="5.809"/>
	<circle style="fill:#233264;" cx="681.117" cy="473.576" r="5.809"/>
	<path style="fill:#233264;" d="M641.645,459.513c-0.295,0-0.595-0.046-0.891-0.144c-12.497-4.134-26.017-5.557-39.101-4.115
		c-1.56,0.165-2.958-0.952-3.13-2.509c-0.171-1.557,0.952-2.958,2.509-3.13c13.888-1.53,28.239-0.02,41.503,4.368
		c1.487,0.492,2.294,2.096,1.802,3.583C643.943,458.758,642.835,459.513,641.645,459.513z"/>
	<path style="fill:#233264;" d="M666.775,459.513c-1.19,0-2.298-0.755-2.692-1.946c-0.492-1.487,0.315-3.091,1.802-3.583
		c13.265-4.387,27.618-5.896,41.503-4.368c1.557,0.172,2.68,1.573,2.509,3.13c-0.171,1.557-1.568,2.674-3.13,2.509
		c-13.083-1.443-26.604-0.018-39.101,4.115C667.371,459.467,667.07,459.513,666.775,459.513z"/>
	<path style="fill:#FFFFFF;" d="M632.387,541.539h48.73c0,0-18.573,21.955-29.812,16.695
		C640.066,552.975,632.387,541.539,632.387,541.539z"/>
</g>
<path style="fill:#233264;" d="M3401.374,1359.208H297.276c-2.485,0-4.5-2.015-4.5-4.5s2.015-4.5,4.5-4.5h3104.098
	c2.485,0,4.5,2.015,4.5,4.5S3403.859,1359.208,3401.374,1359.208z"/>
</svg>
