<svg xmlns="http://www.w3.org/2000/svg" xmlns:xlink="http://www.w3.org/1999/xlink" xml:space="preserve" viewBox="0 0 3662.143 1536.431"><path d="M0 0h3662.143v1536.431H0z" style="fill:#ecddd5"/><circle cx="3401.374" cy="313.946" r="188.368" style="fill:#f4ebe6" transform="rotate(-45.001 3401.387 313.987)"/><circle cx="2780.546" cy="621.64" r="54.597" style="fill:#f4ebe6"/><circle cx="1049.241" cy="367.261" r="188.368" style="fill:#f4ebe6" transform="rotate(-45.001 1049.242 367.275)"/><circle cx="2086.339" cy="246.42" r="67.527" style="fill:#f4ebe6"/><circle cx="1909.629" cy="511.737" r="109.893" style="fill:#f4ebe6" transform="rotate(-45.001 1909.632 511.761)"/><circle cx="232.686" cy="824.779" r="109.893" style="fill:#f4ebe6" transform="rotate(-45.001 232.678 824.785)"/><circle cx="472.023" cy="210.783" r="78.004" style="fill:#f4ebe6"/><circle cx="2643.458" cy="307.667" r="137.087" style="fill:#f4ebe6"/><path d="M2348.279 630.871h-112.384l15.204-110.025h77.279z" style="fill:#da8c8d"/><path d="M2379.299 630.895c-20.717-6.112-43.361-9.848-66.914-11.341l.01-.404a398 398 0 0 0-20.308-.33 397 397 0 0 0-20.308.33l.01.404c-23.552 1.493-46.196 5.23-66.913 11.341-269.217 79.423-60.586 513.467-60.586 513.467h295.596c-.001 0 208.629-434.043-60.587-513.467" style="fill:#233264"/><path d="M2292.087 587.917c-40.58 0-73.477-32.897-73.477-73.476v-56.03c0-40.58 32.896-73.476 73.477-73.476 40.58 0 73.476 32.896 73.476 73.476v56.03c0 40.58-32.896 73.476-73.476 73.476" style="fill:#da8c8d"/><path d="m2400.349 639.285-24.036 180.048h-172.119l-23.528-176.245c-.783-5.868-7.23-9.106-12.405-6.231l-24.235 13.465a8.4 8.4 0 0 0-4.32 7.342v486.698h304.761l-3.666-325.029V656.126a5.79 5.79 0 0 0-2.975-5.057l-28.934-16.076c-3.564-1.98-8.003.25-8.543 4.292" style="fill:#f6b233"/><path d="m2267.377 458.65-18.173 3.318a5.236 5.236 0 1 1-1.88-10.302l18.173-3.318a5.237 5.237 0 0 1 1.88 10.302M2327.67 462.068l-18.131-3.542a5.236 5.236 0 1 1 2.008-10.278l18.131 3.541a5.237 5.237 0 0 1-2.008 10.279M2263.599 473.445a5.81 5.81 0 1 1-11.619 0 5.81 5.81 0 0 1 11.619 0M2323.223 473.445a5.81 5.81 0 1 1-11.619 0 5.81 5.81 0 0 1 11.619 0" style="fill:#233264"/><path d="M2270.22 524.298s23.507 2.958 41.384-6.476c0 0-1.591 27.555-20.692 28.351s-20.692-21.875-20.692-21.875" style="fill:#fff"/><path d="M2284.838 458.195c-1.353 4.557-2.79 9.082-4.182 13.625l-4.34 13.568-1.067 3.399c-.323 1.107-.777 2.369-.89 3.21-.272 1.864.172 3.797 1.286 5.329a6.75 6.75 0 0 0 2.089 1.938c.75.485 2.01.905 3.058 1.411 2.179.968 4.337 1.998 6.438 3.2l-.105.317c-2.403-.293-4.749-.758-7.074-1.285a48 48 0 0 1-1.74-.407c-.535-.13-1.254-.316-1.892-.594a9.54 9.54 0 0 1-3.395-2.503c-1.888-2.163-2.606-5.298-1.907-8.075.398-1.478.906-2.404 1.341-3.542l1.339-3.301 5.284-13.229c1.816-4.39 3.586-8.797 5.441-13.173zM2291.843 589.59c-28.674 0-47.895-17.386-48.7-18.129a1.67 1.67 0 0 1 2.262-2.461c.188.173 19.113 17.246 46.444 17.246.08 0 .165.002.237 0a1.672 1.672 0 0 1 .006 3.344zM2234.681 426.043s2.715 43.462-16.071 55.042v36.737s-41.99-44.741-9.722-91.779zM2346.639 426.043s-2.715 43.462 16.071 55.042l2.577 39.761s39.413-47.765 7.146-94.803z" style="fill:#233264"/><circle cx="2374.64" cy="481.085" r="19.357" style="fill:#da8c8d" transform="rotate(-45.001 2374.646 481.115)"/><path d="M2364.184 487.869c-.17-2.665.504-5.358 1.778-7.807 1.28-2.438 3.357-4.633 5.988-5.899 2.616-1.301 5.618-1.57 8.316-1.111a17.2 17.2 0 0 1 7.365 3.094c-2.64-.274-5.145-.563-7.551-.472-2.399.064-4.668.508-6.664 1.494-2.005.966-3.757 2.465-5.258 4.326-1.509 1.863-2.793 4.013-3.974 6.375" style="fill:#233264"/><circle cx="2207.3" cy="487.869" r="19.357" style="fill:#da8c8d" transform="rotate(-9.213 2207.11 487.627)"/><path d="M2217.757 494.653c-1.181-2.363-2.465-4.513-3.972-6.375-1.501-1.861-3.253-3.36-5.258-4.326-1.997-.985-4.265-1.43-6.664-1.494-2.406-.091-4.912.198-7.551.472a17.1 17.1 0 0 1 7.365-3.094c2.698-.458 5.7-.19 8.316 1.112 2.63 1.266 4.708 3.46 5.988 5.899 1.272 2.448 1.946 5.141 1.776 7.806" style="fill:#233264"/><path d="M2392.026 437.18c0-55.195-44.744-99.939-99.939-99.939s-99.939 44.744-99.939 99.939z" style="fill:#f6b233"/><path d="M2099.36 707.699s-177.828 285.656-66.175 377.007c68.945 56.408 305.455-134.342 305.455-134.342l-43.974-66.273-164.598 57.317z" style="fill:#233264"/><path d="m2336.263 971.058-70.315-31.65a8.776 8.776 0 0 1-4.4-11.604l59.373-131.907a8.776 8.776 0 0 1 11.604-4.4l70.315 31.65a8.776 8.776 0 0 1 4.4 11.604l-59.373 131.907a8.776 8.776 0 0 1-11.604 4.4" style="fill:#ee677a"/><path d="M2284.53 949.865a2.094 2.094 0 0 1-1.907-2.951l66.577-147.911a2.094 2.094 0 0 1 2.767-1.05 2.094 2.094 0 0 1 1.05 2.767l-66.577 147.911a2.1 2.1 0 0 1-1.91 1.234M2317.404 965.396a2.094 2.094 0 0 1-1.907-2.952l66.577-147.911a2.094 2.094 0 0 1 2.767-1.05 2.094 2.094 0 0 1 1.05 2.767l-66.577 147.911a2.09 2.09 0 0 1-1.91 1.235" style="fill:#233264"/><path d="m2300.787 978.998-64.893-47.802s29.578 49.51 44.772 62.16z" style="fill:#121d3d"/><path d="M2299.204 871.655s47.553-15.949 51.905-15.077c4.351.872 35.456 24.108 35.456 24.108l-2.582 20.491z" style="fill:#da8c8d"/><path d="M2340.605 882.865a1.587 1.587 0 0 1-.859-2.924l24.8-15.882a1.587 1.587 0 0 1 1.713 2.674l-24.8 15.882c-.265.169-.561.25-.854.25M2361.079 889.663a1.588 1.588 0 0 1-.977-2.839l17.265-13.443a1.588 1.588 0 0 1 1.952 2.504l-17.265 13.443c-.29.227-.634.335-.975.335" style="fill:#233264"/><path d="M2032.97 995.736a2.382 2.382 0 0 1-2.015-3.647c9.287-14.787 30.367-28.774 62.655-41.574 23.845-9.452 45.318-14.724 45.532-14.776a2.383 2.383 0 0 1 2.877 1.75 2.383 2.383 0 0 1-1.75 2.877c-.841.205-84.315 20.873-105.281 54.257a2.38 2.38 0 0 1-2.018 1.113" style="fill:#121d3d"/><path d="m2224.337 625.965 67.749 143.963 63.196-144.903c.001 0-50.633-23.417-130.945.94" style="fill:#da8c8d"/><path d="M2139.706 1076.383s-46.736 251.038-46.736 278.325h406.658l-56.112-294.692z" style="fill:#f6b233"/><path d="M2395.348 1273.462h-205.51c-9.259 0-16.791-7.532-16.791-16.791v-155.497c0-9.259 7.532-16.791 16.791-16.791h205.51c9.259 0 16.791 7.532 16.791 16.791v155.497c0 9.259-7.533 16.791-16.791 16.791m-205.51-185.298c-7.174 0-13.01 5.836-13.01 13.01v155.497c0 7.174 5.836 13.01 13.01 13.01h205.51c7.174 0 13.01-5.836 13.01-13.01v-155.497c0-7.174-5.836-13.01-13.01-13.01z" style="fill:#233264"/><path d="M2210.33 1126.782c-7.359 0-13.346-5.986-13.346-13.346s5.986-13.347 13.346-13.347 13.346 5.987 13.346 13.347-5.987 13.346-13.346 13.346m0-23.856c-5.795 0-10.51 4.715-10.51 10.511s4.715 10.51 10.51 10.51 10.51-4.715 10.51-10.51c0-5.796-4.715-10.511-10.51-10.511M2380.681 1126.782c-7.359 0-13.346-5.986-13.346-13.346s5.986-13.347 13.346-13.347 13.347 5.987 13.347 13.347-5.988 13.346-13.347 13.346m0-23.856c-5.795 0-10.51 4.715-10.51 10.511s4.715 10.51 10.51 10.51c5.796 0 10.511-4.715 10.511-10.51-.001-5.796-4.715-10.511-10.511-10.511M2395.35 1087.945l-.107-.003a1.673 1.673 0 0 1-1.563-1.774l27.434-435.048a1.686 1.686 0 0 1 1.774-1.563 1.67 1.67 0 0 1 1.563 1.774l-27.434 435.048a1.67 1.67 0 0 1-1.667 1.566M2195.108 1087.945a1.67 1.67 0 0 1-1.664-1.528L2156.3 656.033a1.67 1.67 0 0 1 1.522-1.809 1.665 1.665 0 0 1 1.81 1.522l37.144 430.384a1.674 1.674 0 0 1-1.668 1.815" style="fill:#233264"/><path d="M2487.155 711.6s176.878 261.086 54.195 353.937c-71.031 53.759-305.455-134.342-305.455-134.342l43.974-66.273 164.598 57.317zM2238.589 900.259c-5.141 2.641-11.451.615-14.092-4.527l-38.741-75.408 18.619-9.565 38.741 75.408c2.641 5.142.614 11.451-4.527 14.092" style="fill:#233264"/><path d="m2116.349 668.693 13.047 127.491a3.13 3.13 0 0 0 2.782 2.791l55.456 5.85a3.13 3.13 0 0 0 3.046-1.565l27.54-48.488a3.13 3.13 0 0 0-.648-3.887l-96.043-84.852c-2.133-1.886-5.47-.172-5.18 2.66" style="fill:#fff"/><path d="M2201.262 829.691c-.76 0-1.492-.415-1.863-1.137l-37.857-73.689a2.094 2.094 0 0 1 .905-2.817 2.09 2.09 0 0 1 2.817.905l37.857 73.689a2.094 2.094 0 0 1-1.859 3.049" style="fill:#233264"/><path d="m2274.548 872.941-23.206-10.604s-12.113-24.421-15.448-26.193c-2.104-1.118-26.15-2.528-43.607-3.416-9.88-.503-18.161 7.374-18.161 17.266v13.67a36.49 36.49 0 0 0 17.348 31.064l48.707 30.007z" style="fill:#da8c8d"/><path d="M2200.177 858.166c-.245 0-.494-.057-.727-.177l-24.28-12.519a1.589 1.589 0 0 1 1.455-2.823l24.28 12.519a1.589 1.589 0 0 1-.728 3M2199.249 873.243c-.245 0-.494-.057-.727-.177l-24.279-12.518a1.589 1.589 0 0 1 1.455-2.823l24.279 12.518a1.589 1.589 0 0 1-.728 3M2196.603 887.405c-.245 0-.494-.057-.727-.177l-19.902-10.262a1.589 1.589 0 0 1 1.455-2.823l19.902 10.262a1.589 1.589 0 0 1-.728 3" style="fill:#233264"/><path d="M2554.791 979.837a2.38 2.38 0 0 1-2.057-1.179c-21.669-37.038-107.847-53.914-108.715-54.08a2.382 2.382 0 0 1 .894-4.678c.222.043 22.435 4.34 47.1 13.304 33.409 12.142 55.222 26.626 64.83 43.05a2.38 2.38 0 0 1-2.052 3.583" style="fill:#121d3d"/><path d="M1842.387 1227.335s31.868 48.899 31.868 51.778-9.943 58.703-34.873 62.648c-18.481 2.925-44.775-9.869-45.734-19.465s0-54.698 0-54.698l-6.551-18.719z" style="fill:#da8c8d"/><path d="m1913.439 1248.285-4.396-7.808 131.677-74.133a4.48 4.48 0 0 1 4.396 7.808z" style="fill:#fff"/><path d="m1909.636 1267.377-.007-.013M1920.06 1260.045l-17.593-31.249a6.34 6.34 0 0 0-11.049 6.221l4.046 7.187c.015.027.001.06-.029.065-3.72.612-11.823 1.642-17.255.13a.04.04 0 0 0-.032.004l-72.865 41.022c-8.811 4.961-12.477 16.046-7.813 25.018 4.876 9.38 16.504 12.79 25.642 7.645l73.282-41.274a.04.04 0 0 0 .02-.025c1.525-5.429 6.608-11.822 9.061-14.686.02-.023.056-.018.071.009l3.464 6.153a6.34 6.34 0 0 0 8.635 2.414 6.34 6.34 0 0 0 2.415-8.634M2039.491 1172.574a.396.396 0 0 1-.195-.742l7.331-4.127a.397.397 0 0 1 .389.691l-7.331 4.127a.4.4 0 0 1-.194.051" style="fill:#233264"/><path d="M1856.819 1254.412s15.879 46.068 3.026 43.768c-4.396-.787-28.249-15.585-25.899-36.739 2.351-21.155 22.873-7.029 22.873-7.029M1849.694 1303.438s-24.319-15.446-35.492-13.145c-11.174 2.3-32.234 16.682-20.554 32.003s53.203 15.547 53.203 15.547z" style="fill:#da8c8d"/><path d="M1842.522 1314.811c-.161 0-.324-.032-.481-.102-14.433-6.394-35.729-19.519-35.943-19.65a1.19 1.19 0 1 1 1.251-2.026c.212.131 21.373 13.171 35.657 19.498a1.191 1.191 0 0 1-.484 2.28M1839.382 1324.667q-.172 0-.347-.052c-13.469-4.099-41.687-20.983-42.881-21.7a1.19 1.19 0 1 1 1.224-2.041c.29.174 29.16 17.45 42.35 21.464a1.19 1.19 0 0 1-.346 2.329M1833.784 1335.06q-.163 0-.327-.045c-13.839-3.938-41.799-19.396-42.982-20.052a1.19 1.19 0 1 1 1.154-2.082c.288.159 28.904 15.98 42.48 19.843a1.192 1.192 0 0 1-.325 2.336" style="fill:#233264"/><path d="M1552.961 630.871h-112.384l15.205-110.025h77.279z" style="fill:#da8c8d"/><path d="M1583.981 630.895c-20.717-6.112-43.361-9.848-66.913-11.341l.01-.404a398 398 0 0 0-20.308-.33 397 397 0 0 0-20.308.33l.01.404c-23.552 1.493-46.197 5.23-66.913 11.341-269.217 79.423-60.586 513.467-60.586 513.467h295.596c-.002 0 208.629-434.043-60.588-513.467" style="fill:#233264"/><path d="M1496.769 587.917c-40.58 0-73.477-32.897-73.477-73.476v-56.03c0-40.58 32.896-73.476 73.476-73.476s73.476 32.896 73.476 73.476v56.03c.002 40.58-32.895 73.476-73.475 73.476" style="fill:#da8c8d"/><path d="m1605.032 639.285-24.036 180.048h-172.119l-23.528-176.245c-.783-5.868-7.23-9.106-12.405-6.231l-24.235 13.465a8.4 8.4 0 0 0-4.32 7.342v486.698h304.761l-3.665-325.029V656.126a5.79 5.79 0 0 0-2.975-5.057l-28.934-16.076c-3.565-1.98-8.005.25-8.544 4.292" style="fill:#f6b233"/><path d="M1496.75 474.358c-1.353 4.556-2.79 9.082-4.182 13.625l-4.34 13.568-1.067 3.398c-.323 1.107-.777 2.369-.89 3.21-.272 1.864.172 3.797 1.286 5.329a6.75 6.75 0 0 0 2.089 1.938c.75.485 2.01.905 3.057 1.411 2.179.968 4.337 1.997 6.438 3.2l-.105.317c-2.403-.293-4.748-.758-7.074-1.285a48 48 0 0 1-1.74-.407c-.535-.13-1.254-.316-1.892-.594a9.54 9.54 0 0 1-3.395-2.503c-1.888-2.163-2.606-5.298-1.907-8.075.398-1.478.906-2.404 1.341-3.542l1.339-3.301 5.284-13.229c1.816-4.39 3.586-8.797 5.441-13.173zM1496.524 589.59c-28.674 0-47.893-17.386-48.7-18.129a1.67 1.67 0 0 1 2.264-2.461c.188.173 19.112 17.246 46.443 17.246h.238a1.673 1.673 0 0 1 .006 3.344zM1439.363 426.043s2.715 43.462-16.071 55.042v36.737s-47.333-47.486-15.065-94.524zM1551.321 426.043s-2.715 43.462 16.071 55.042l2.577 39.761s41.703-57.203 9.436-104.241z" style="fill:#233264"/><path d="m1429.02 625.965 14.645 8.485c31.991 18.534 71.569 18.031 103.078-1.309l13.222-8.116s-50.634-23.417-130.945.94" style="fill:#da8c8d"/><path d="M1344.389 1076.383s-46.736 251.038-46.736 278.325h406.658l-56.112-294.692z" style="fill:#f6b233"/><path d="M1415.013 1127.255c-7.62 0-13.819-6.199-13.819-13.818 0-7.62 6.199-13.819 13.819-13.819s13.819 6.199 13.819 13.819c0 7.619-6.2 13.818-13.819 13.818m0-23.857c-5.535 0-10.038 4.503-10.038 10.038 0 5.534 4.503 10.037 10.038 10.037s10.038-4.503 10.038-10.037c-.001-5.535-4.504-10.038-10.038-10.038M1585.363 1127.255c-7.62 0-13.819-6.199-13.819-13.818 0-7.62 6.199-13.819 13.819-13.819s13.819 6.199 13.819 13.819c0 7.619-6.199 13.818-13.819 13.818m0-23.857c-5.535 0-10.038 4.503-10.038 10.038 0 5.534 4.503 10.037 10.038 10.037s10.038-4.503 10.038-10.037-4.503-10.038-10.038-10.038M1601.811 1085.33l-.101-.003a1.673 1.673 0 0 1-1.57-1.768l25.655-432.433a1.663 1.663 0 0 1 1.768-1.57 1.67 1.67 0 0 1 1.57 1.768l-25.655 432.432a1.67 1.67 0 0 1-1.667 1.574M1407.708 1085.33c-.845 0-1.57-.638-1.661-1.497l-45.061-427.768a1.671 1.671 0 1 1 3.325-.351l45.061 427.769a1.67 1.67 0 0 1-1.664 1.847M1533.355 428.252c15.856-1.642 32.039-4.045 46.05-11.647 23.67-12.843 38.121-40.882 34.847-67.612-20.489 5.626-42.14-.21-62.786-5.232-20.509-4.989-41.414-9.206-62.518-8.883-21.105.322-42.61 5.478-59.757 17.785-17.148 12.307-29.348 32.41-29.087 53.516.055 4.417.669 8.857 2.048 13.061.945 2.883 2.458 8.124 5.795 8.966 3.839.969 8.622.671 12.587 1.012q7.89.68 15.794 1.151a598 598 0 0 0 62.032.469 595 595 0 0 0 34.995-2.586" style="fill:#233264"/><circle cx="1579.323" cy="481.085" r="19.357" style="fill:#da8c8d" transform="rotate(-22.5 1579.253 481.07)"/><path d="M1568.866 487.869c-.17-2.665.504-5.358 1.778-7.807 1.28-2.438 3.357-4.633 5.988-5.899 2.616-1.301 5.618-1.57 8.316-1.111a17.2 17.2 0 0 1 7.365 3.094c-2.64-.274-5.145-.563-7.551-.472-2.4.064-4.668.508-6.665 1.494-2.005.966-3.757 2.465-5.258 4.326-1.508 1.863-2.792 4.013-3.973 6.375" style="fill:#233264"/><circle cx="1411.983" cy="487.869" r="19.357" style="fill:#da8c8d" transform="rotate(-13.286 1411.671 487.807)"/><path d="M1422.439 494.653c-1.181-2.363-2.465-4.513-3.972-6.375-1.501-1.861-3.253-3.36-5.258-4.326-1.997-.985-4.265-1.43-6.664-1.494-2.406-.091-4.911.198-7.551.472a17.14 17.14 0 0 1 7.364-3.094c2.698-.458 5.7-.19 8.316 1.112 2.63 1.266 4.708 3.46 5.988 5.899 1.273 2.448 1.947 5.141 1.777 7.806" style="fill:#233264"/><path d="m1489.461 460.163-12.646 34.054c-1.458 3.925-5.772 5.989-9.735 4.636-9.15-3.124-25.551-10.035-40.581-23.153v-15.537zM1498.664 460.163l12.646 34.054c1.458 3.925 5.772 5.989 9.735 4.636 9.15-3.124 25.551-10.035 40.581-23.153v-15.537z" style="fill:#fff"/><path d="M1484.473 460.163h19.267l-1.215 10.397H1485.6z" style="fill:#233264"/><path d="M1472.863 547.101s37.493-2.366 43.407-5.915c0 0-11.795 10.055-19.502 9.464-7.705-.591-23.905-3.549-23.905-3.549" style="fill:#fff"/><path d="m1605.015 861.237-23.925-29.161 17.778-11.05 8.743 35.399 1.269 2.048zm-16.799-27.983 12.543 15.289-4.943-20.013z" style="fill:#121d3d"/><defs><path id="a" d="m1678.287 697.714-120.131 38.371a10.9 10.9 0 0 0-4.219 2.502l-36.982 35.248a10.94 10.94 0 0 0-3.198 9.967l23.031 120.792c.181.948.486 1.868.908 2.735 4.535 9.328 31.87 65.075 36.618 63.224l58.756-22.914c5.628-2.195 8.412-8.537 6.217-14.166l-.692-1.774c-2.195-5.628-8.537-8.412-14.166-6.217a10.94 10.94 0 0 1-13.43-4.691l-21.872-37.602a10.94 10.94 0 0 1-1.437-6.503l3.697-40.156a10.94 10.94 0 0 1 6.918-9.188l92.812-36.195a10.94 10.94 0 0 0 6.914-9.138l4.544-46.995a10.94 10.94 0 0 0-.697-5.027l-10.072-25.825a10.937 10.937 0 0 0-13.519-6.448"/></defs><use xlink:href="#a" style="overflow:visible;fill:#ee677a"/><clipPath id="b"><use xlink:href="#a" style="overflow:visible"/></clipPath><path d="M1516.681 812.752c-4.544 0-11.478-5.044-14.205-12.038-3.787-9.71 1.032-20.691 10.742-24.477l80.571-31.422c9.711-3.785 20.691 1.032 24.477 10.742 1.806 4.631 1.586 9.417-.618 13.476-2.049 3.773-6.807 8.744-17.841 11.072l-79.573 31.032c-.716.966-1.874 1.546-3.292 1.608a5 5 0 0 1-.261.007m83.959-64.467c-1.706 0-3.438.31-5.121.967l-80.571 31.421c-7.264 2.833-10.868 11.047-8.036 18.31 2.233 5.727 7.593 8.862 9.523 9.016l.161-.554 82.047-31.962c7.429-1.535 12.554-4.552 14.819-8.723 1.954-3.597 1.277-7.137.366-9.473-2.175-5.581-7.529-9.002-13.188-9.002M1691.949 754.803l-25.171-64.544 26.558-6.796 25.171 64.544zm-18.781-61.263 21.685 55.605 17.263-4.418-21.685-55.606zM1597.999 921.556c-9.662 0-18.804-5.842-22.52-15.371l-7.416-19.015a23.98 23.98 0 0 1 .386-18.474 23.98 23.98 0 0 1 13.334-12.789l12.576-4.904L1619.318 915l-12.576 4.904a24 24 0 0 1-8.743 1.652m7.877-3.869h.01zm-14.223-60.518-8.14 3.174a19.25 19.25 0 0 0-10.705 10.268 19.25 19.25 0 0 0-.31 14.829l7.416 19.015c3.882 9.955 15.144 14.892 25.096 11.015l8.14-3.176z" style="clip-path:url(#b);fill:#121d3d"/><path d="m1646.498 719.888 16.686-6.508a1.444 1.444 0 1 0-1.049-2.691l-16.686 6.508a1.445 1.445 0 0 0 1.049 2.691M1649.368 727.247l16.687-6.508a1.444 1.444 0 1 0-1.049-2.691l-16.687 6.507a1.445 1.445 0 0 0 1.049 2.692M1652.238 734.606l16.686-6.508a1.444 1.444 0 1 0-1.049-2.691l-16.687 6.507a1.445 1.445 0 0 0 1.05 2.692M1655.108 741.965l16.686-6.508a1.444 1.444 0 1 0-1.049-2.691l-16.686 6.507a1.444 1.444 0 1 0 1.049 2.692M1657.978 749.324l16.687-6.508a1.444 1.444 0 1 0-1.049-2.691l-16.687 6.508a1.444 1.444 0 1 0 1.049 2.691M1660.848 756.683l16.687-6.508a1.445 1.445 0 0 0-1.05-2.691l-16.686 6.508a1.444 1.444 0 1 0 1.049 2.691M1663.718 764.042l16.686-6.507a1.444 1.444 0 1 0-1.049-2.691l-16.686 6.508a1.444 1.444 0 1 0 1.049 2.69M1666.588 771.401l16.687-6.507a1.444 1.444 0 1 0-1.049-2.691l-16.687 6.508a1.444 1.444 0 1 0 1.049 2.69M1669.458 778.76l16.687-6.508a1.444 1.444 0 1 0-1.049-2.691l-16.686 6.508a1.444 1.444 0 0 0-.821 1.87 1.44 1.44 0 0 0 1.869.821M1672.328 786.119l16.686-6.508a1.444 1.444 0 1 0-1.049-2.691l-16.687 6.507a1.444 1.444 0 1 0 1.05 2.692" style="fill:#233264"/><path d="m1697.679 719.22 112.557-43.896 3.132-15.135-120.399 46.953z" style="fill:#fff"/><path d="m1717.858 722.366 33.715-13.148a4.1 4.1 0 0 0 2.329-5.306l-9.646-24.733a4.1 4.1 0 0 0-5.306-2.329l-33.715 13.148a4.1 4.1 0 0 0-2.329 5.306l9.646 24.733a4.097 4.097 0 0 0 5.306 2.329M1304.042 707.699s-214.657 298.099-103.003 389.449c68.945 56.409 342.284-146.785 342.284-146.785l-43.974-66.273-164.598 57.317z" style="fill:#233264"/><path d="M1206.717 1021.555a2.38 2.38 0 0 1-2.014-3.647c9.246-14.723 35.465-33.023 77.929-54.397 31.428-15.817 60.579-27.552 60.87-27.669a2.382 2.382 0 0 1 1.773 4.42c-1.152.462-115.468 46.626-136.54 80.179a2.38 2.38 0 0 1-2.018 1.114" style="fill:#121d3d"/><path d="m1503.634 890.549 25.082-14.855a58.38 58.38 0 0 1 46.767-12.852l13.284 2.147s15.323 38.22 16.216 45.458c.893 7.239-57.92 15.698-57.92 15.698l-13.102 10.108z" style="fill:#da8c8d"/><path d="M1569.808 880.265a1.192 1.192 0 0 1-.092-2.377l22.58-1.764a1.183 1.183 0 0 1 1.28 1.094 1.19 1.19 0 0 1-1.094 1.279l-22.58 1.764a1 1 0 0 1-.094.004M1575.352 892.912a1.19 1.19 0 0 1-.129-2.374l21.877-2.41a1.19 1.19 0 0 1 .26 2.368l-21.877 2.41a2 2 0 0 1-.131.006M1580.203 906.773a1.19 1.19 0 0 1-.224-2.36l21.604-4.179a1.19 1.19 0 1 1 .452 2.338l-21.604 4.179a1.2 1.2 0 0 1-.228.022M1716.684 781.52l69.613 237.654 76.935 220.165-82.727 32.234s-111.661-185.322-126.188-244.428c-14.528-59.107 62.367-245.625 62.367-245.625M1503.634 1081.885h-94.06200000000001c-6.183 0-12.368-.05-18.551 0-8.743.071-16.646 6.075-18.706 14.654-.81 3.375-.426 6.673-.018 10.057q.451 3.733.979 7.456c1.642 11.609 3.861 23.142 6.727 34.512 3.389 13.443 7.706 26.656 13.198 39.391 5.727 13.281 12.812 26.008 21.675 37.461 8.88 11.475 19.612 21.557 32.091 29.029 13.619 8.155 28.978 12.869 44.748 14.382 16.811 1.614 34.19-.053 50.151-5.699 14.107-4.991 26.916-13.048 37.786-23.307 10.576-9.983 19.271-21.876 26.374-34.532 7.003-12.478 12.535-25.77 16.99-39.355 4.01-12.23 7.148-24.741 9.578-37.378a345 345 0 0 0 2.692-16.037c.895-6.22 2.39-12.795-.135-18.813-3.028-7.217-10.136-11.796-17.923-11.821-2.145-.007-4.29 0-6.435 0h-107.159c-2.281 0-2.285 3.545 0 3.545h92.679c6.907 0 13.813-.011 20.72 0 6.552.01 12.637 3.774 15.017 10.008 1.319 3.453 1.031 6.869.583 10.44-.3 2.394-.548 4.218-.916 6.718-1.67 11.369-3.891 22.662-6.727 33.798-3.33 13.075-7.492 25.983-12.824 38.385-5.612 13.052-12.496 25.624-21.086 36.964-8.557 11.296-18.96 21.301-31.036 28.771-13.035 8.063-27.819 12.97-43.044 14.62-16.488 1.786-33.486.384-49.231-4.947-13.741-4.652-26.264-12.401-36.838-22.303-10.342-9.685-18.788-21.204-25.711-33.531-6.828-12.158-12.195-25.089-16.508-38.337-3.948-12.127-7.024-24.533-9.398-37.061a343 343 0 0 1-2.632-15.939c-.319-2.26-.586-4.308-.88-6.758-.402-3.363-.788-6.627.254-9.932 2.089-6.631 8.363-10.877 15.211-10.894 2.222-.006 4.444 0 6.666 0h105.702c2.28-.001 2.284-3.547-.001-3.547M3176.962 678.332s41.531 28.219 143.873 173.901c6.593 9.385 152.67-213.006 152.67-213.006l52.464 14.283s-117.706 380.381-213.744 335.571-196.524-135.529-196.524-135.529z" style="fill:#233264"/><path d="M3119.093 644.691c-19.424-9.446-43.361-9.848-66.913-11.341l.01-.404a398 398 0 0 0-20.308-.33 397 397 0 0 0-20.308.33l.01.404c-23.552 1.494-47.075 2.798-66.914 11.341-196.846 84.775-60.586 513.467-60.586 513.467h295.596c-.001 0 119.377-425.951-60.587-513.467" style="fill:#233264"/><path d="m3140.144 653.081-24.036 180.048h-172.119l-23.528-176.245c-.783-5.868-7.23-9.106-12.405-6.231l-24.235 13.465a8.4 8.4 0 0 0-4.32 7.342v486.698h304.761l-3.666-325.029V669.922a5.79 5.79 0 0 0-2.975-5.057l-28.934-16.076c-3.564-1.98-8.004.25-8.543 4.292" style="fill:#f6b233"/><path d="m2964.132 639.761 1.221.708c40.26 23.325 90.069 22.692 129.724-1.648 0 0-50.634-23.417-130.945.94" style="fill:#da8c8d"/><path d="M2879.386 1076.383s-46.736 251.038-46.736 278.325h406.658l-56.112-294.692z" style="fill:#f6b233"/><path d="m3473.505 639.227 10.729-34.729 20.125-21.734c3.071-3.317 8.309-3.336 11.405-.042l19.933 21.208a9.99 9.99 0 0 1 2.398 9.317l-2.759 10.78a39.63 39.63 0 0 1-13.103 20.683l-7.07 5.859z" style="fill:#da8c8d"/><defs><path id="c" d="m3479.477 516.981 54.364-311.633 50.966-2.035-15.289 327.895z"/></defs><use xlink:href="#c" style="overflow:visible;fill:#fff"/><clipPath id="d"><use xlink:href="#c" style="overflow:visible"/></clipPath><path d="m3560.031 532.002-.061-.002a.79.79 0 0 1-.731-.851l24.777-327.895a.79.79 0 0 1 .851-.731.79.79 0 0 1 .731.851l-24.777 327.895a.793.793 0 0 1-.79.733" style="clip-path:url(#d);fill:#233264"/><path d="m3479.477 516.981-11.917 62.051a23.79 23.79 0 0 0 11.593 25.161l31.427 17.89a32.39 32.39 0 0 0 27.496 2.141l12.724-4.82a20.7 20.7 0 0 0 13.308-17.775l5.409-70.421zm56.066 84.098a28.15 28.15 0 0 1-22.348-2.2l-17.153-9.556a27.64 27.64 0 0 1-13.917-28.005l1.34-9.501c1.096-7.769 8.589-12.95 16.245-11.23l38.073 8.551c11.958 2.686 20.01 13.899 18.733 26.088a30.51 30.51 0 0 1-20.973 25.853" style="fill:#ee677a"/><path d="m3500.693 586.722 3.964 21.813 14.339 10.618a17.13 17.13 0 0 0 15.264 2.599 3.37 3.37 0 0 0 2.266-2.381l2.929-11.443-23.347-24.841c-3.282-3.492-8.835-3.471-12.091.045z" style="fill:#da8c8d"/><path d="m3483.554 606.698 33.275-12.806s-.476 11.892-1.903 14.271c-1.427 2.378-22.834 17.125-22.834 17.125s-9.466-4.833-8.538-18.59" style="fill:#da8c8d"/><path d="M3505.962 616.204a.8.8 0 0 1-.69-.396.79.79 0 0 1 .277-1.075l.17-.091c2.296-1.21 9.825-5.492 10.322-9.768.358-3.084.294-6.329.177-8.507a.98.98 0 0 0-.45-.78.98.98 0 0 0-.891-.092l-11.627 4.475a.79.79 0 0 1-1.025-.456.793.793 0 0 1 .455-1.026l11.627-4.475a2.55 2.55 0 0 1 2.323.241 2.56 2.56 0 0 1 1.174 2.027c.119 2.241.185 5.581-.187 8.776-.569 4.909-7.993 9.32-11.158 10.989l-.108.058a.8.8 0 0 1-.389.1M3528.574 623.487c-7.106 0-13.271-6.07-13.356-6.155a.793.793 0 1 1 1.123-1.121c.027.027 2.813 2.788 6.652 4.452 4.995 2.164 9.365 1.535 12.988-1.87a.794.794 0 0 1 1.088 1.157c-2.768 2.601-5.705 3.537-8.495 3.537M3137.439 1066.74h-208.883c-6.447 0-11.787-5.041-12.158-11.478l-10.19-176.648a12.06 12.06 0 0 1 3.302-9.059 12.06 12.06 0 0 1 8.856-3.819h225.37c3.336 0 6.448 1.321 8.765 3.722a12.08 12.08 0 0 1 3.406 8.89l-6.298 176.647a12.134 12.134 0 0 1-12.17 11.745m-219.073-198.623a9.7 9.7 0 0 0-7.125 3.072 9.7 9.7 0 0 0-2.656 7.289l10.19 176.647c.298 5.178 4.595 9.233 9.781 9.233h208.883a9.76 9.76 0 0 0 9.791-9.448l6.298-176.647a9.71 9.71 0 0 0-2.741-7.152 9.72 9.72 0 0 0-7.051-2.994z" style="fill:#233264"/><path d="M2931.667 908.226c-7.161 0-12.986-5.826-12.986-12.987s5.825-12.986 12.986-12.986 12.986 5.825 12.986 12.986c0 7.16-5.825 12.987-12.986 12.987m0-23.138c-5.597 0-10.15 4.554-10.15 10.15 0 5.598 4.554 10.151 10.15 10.151s10.15-4.554 10.15-10.151-4.553-10.15-10.15-10.15M3128.579 908.226c-7.161 0-12.986-5.826-12.986-12.987s5.825-12.986 12.986-12.986 12.987 5.825 12.987 12.986c0 7.16-5.826 12.987-12.987 12.987m0-23.138c-5.597 0-10.15 4.554-10.15 10.15 0 5.598 4.554 10.151 10.15 10.151 5.598 0 10.151-4.554 10.151-10.151s-4.553-10.15-10.151-10.15M2943.235 1050.225c-7.161 0-12.986-5.826-12.986-12.987s5.825-12.986 12.986-12.986 12.987 5.825 12.987 12.986-5.826 12.987-12.987 12.987m0-23.138c-5.597 0-10.15 4.554-10.15 10.15 0 5.598 4.554 10.151 10.15 10.151 5.598 0 10.151-4.554 10.151-10.151.001-5.596-4.553-10.15-10.151-10.15M3125.325 1050.225c-7.161 0-12.986-5.826-12.986-12.987s5.825-12.986 12.986-12.986 12.987 5.825 12.987 12.986-5.826 12.987-12.987 12.987m0-23.138c-5.597 0-10.15 4.554-10.15 10.15 0 5.598 4.554 10.151 10.15 10.151 5.598 0 10.151-4.554 10.151-10.151.001-5.596-4.553-10.15-10.151-10.15M2918.364 868.599a1.67 1.67 0 0 1-1.662-1.512l-20.279-210.735a1.67 1.67 0 0 1 1.504-1.824 1.66 1.66 0 0 1 1.824 1.504l20.279 210.735a1.67 1.67 0 0 1-1.666 1.832M3143.738 868.599q-.074 0-.146-.006a1.67 1.67 0 0 1-1.521-1.811l18.273-210.735c.08-.92.911-1.599 1.811-1.521.92.08 1.601.89 1.521 1.81l-18.273 210.735a1.674 1.674 0 0 1-1.665 1.528M3091.613 407.389s-3.087 49.414 18.271 62.58l2.93 45.206s44.81-54.306 8.124-107.786z" style="fill:#233264"/><path d="M3093.477 640.267h-127.774l17.287-125.092h87.862z" style="fill:#da8c8d"/><path d="M3029.59 591.431c-46.137 0-83.539-37.401-83.539-83.539v-63.703c0-46.137 37.402-83.539 83.539-83.539s83.539 37.402 83.539 83.539v63.703c0 46.137-37.402 83.539-83.539 83.539" style="fill:#da8c8d"/><path d="M2997.202 461.282a6.605 6.605 0 1 1-13.21 0 6.605 6.605 0 0 1 13.21 0M3064.99 461.282a6.605 6.605 0 1 1-13.21 0 6.605 6.605 0 0 1 13.21 0M3021.349 443.944c-1.538 5.18-3.173 10.326-4.755 15.49l-4.934 15.426-1.213 3.864c-.368 1.259-.883 2.694-1.012 3.649-.31 2.119.196 4.317 1.462 6.059a7.7 7.7 0 0 0 2.375 2.203c.853.551 2.285 1.029 3.476 1.605 2.477 1.101 4.931 2.271 7.32 3.638l-.12.361c-2.732-.333-5.399-.862-8.042-1.461a57 57 0 0 1-1.978-.463c-.608-.148-1.426-.36-2.151-.676-1.467-.63-2.792-1.621-3.86-2.846-2.146-2.459-2.963-6.023-2.168-9.181.453-1.681 1.03-2.734 1.525-4.027l1.523-3.753 6.008-15.041c2.064-4.991 4.077-10.001 6.186-14.976zM2964.323 407.389s3.087 49.414-18.271 62.58v41.768s-47.74-50.868-11.054-104.348z" style="fill:#233264"/><circle cx="3123.449" cy="469.969" r="22.008" style="fill:#da8c8d"/><path d="M3111.56 477.682c-.193-3.031.573-6.092 2.021-8.876 1.455-2.772 3.817-5.267 6.807-6.707 2.974-1.48 6.387-1.785 9.455-1.264a19.5 19.5 0 0 1 8.373 3.518c-3.001-.312-5.85-.64-8.585-.536-2.728.072-5.307.578-7.577 1.698-2.279 1.099-4.272 2.803-5.978 4.918-1.713 2.118-3.173 4.563-4.516 7.249" style="fill:#233264"/><circle cx="2933.193" cy="477.682" r="22.008" style="fill:#da8c8d"/><path d="M2945.081 485.395c-1.343-2.686-2.803-5.131-4.516-7.248-1.706-2.115-3.699-3.82-5.978-4.919-2.27-1.12-4.849-1.626-7.577-1.698-2.735-.103-5.584.225-8.585.536a19.5 19.5 0 0 1 8.373-3.518c3.067-.521 6.481-.216 9.455 1.264 2.99 1.439 5.353 3.934 6.808 6.707 1.448 2.784 2.214 5.845 2.02 8.876M3078.467 516.974c-12.768-12.531-41.126-11.593-51.465-10.782-10.34-.812-38.698-1.749-51.466 10.782-15.771 15.479-13.472 23.85-13.472 23.85s47.265-9.589 64.937-29.005c17.672 19.416 64.937 29.005 64.937 29.005s2.301-8.37-13.471-23.85M3005.926 561.382s20.843 7.561 42.152-13.617c0 0-14.943 31.915-42.152 13.617M2968.826 443.879s21.467-9.738 38.564-4.862c1.109-4.145-1.873-8.258-6.157-8.49-7.085-.383-17.379-.25-25.218 2.711-4.379 1.655-7.189 5.959-7.189 10.641M3077.784 443.879s-21.467-9.738-38.564-4.862c-1.109-4.145 1.873-8.258 6.157-8.49 7.085-.383 17.379-.25 25.217 2.711 4.38 1.655 7.19 5.959 7.19 10.641M3029.591 593.236l-.06-.001c-37.698-1.225-54.928-19.911-55.643-20.706a1.806 1.806 0 0 1 2.682-2.416c.041.046 4.252 4.639 12.86 9.315 7.943 4.314 21.368 9.586 40.218 10.199a1.805 1.805 0 0 1-.057 3.609M2934.998 407.389s12.724-20.541 35.59-22.337c22.866-1.797-16.903 77.611-18.025 78.968s-17.565-56.631-17.565-56.631M3120.938 407.389s-16.902-27.438-32.376-22.368c-15.475 5.07 22.998 66.431 22.998 66.431s14.438-4.033 9.378-44.063" style="fill:#233264"/><path d="M3320.837 938.511c-.786 0-1.557-.39-2.011-1.102-14.262-22.406-13.506-44.721-10.359-59.496 3.397-15.956 10.08-26.521 10.362-26.963a2.383 2.383 0 0 1 3.289-.723 2.383 2.383 0 0 1 .723 3.289c-.32.504-25.578 41.146.003 81.336a2.381 2.381 0 0 1-2.007 3.659" style="fill:#121d3d"/><path d="M2879.501 671.46s-251.13 177.565-231.648 305.059c10.946 71.634 205.864 241.874 205.864 241.874l13.143-64.903-94.4-204.84 107.041-64.964z" style="fill:#233264"/><path d="M2865.914 1158.158s56.083 60.394 51.469 62.445-22.56-1.538-34.353-9.742c0 0-21.213 67.19-32.768 68l-6.987.49 10.441-60.958z" style="fill:#da8c8d"/><path d="M2883.03 1212.052a1.2 1.2 0 0 1-.865-.372c-.393-.416-9.651-10.222-12.398-14.687a1.19 1.19 0 1 1 2.028-1.248c2.619 4.256 12.007 14.198 12.102 14.298a1.192 1.192 0 0 1-.867 2.009" style="fill:#233264"/><path d="M2772.458 951.032a2.38 2.38 0 0 1-2.328-1.893c-6.899-32.855-55.988-53.333-56.482-53.536a2.382 2.382 0 0 1 1.804-4.407c.527.216 13.068 5.396 26.701 14.938 18.262 12.782 29.548 27.315 32.637 42.025a2.38 2.38 0 0 1-1.841 2.819 2.2 2.2 0 0 1-.491.054" style="fill:#121d3d"/><path d="M712.485 630.146H600.101l15.205-110.025h77.279z" style="fill:#da8c8d"/><path d="M743.505 630.17c-20.717-6.112-43.361-9.848-66.913-11.341l.01-.404a398 398 0 0 0-20.308-.33 397 397 0 0 0-20.308.33l.01.404c-23.552 1.494-46.197 5.23-66.913 11.341-269.217 79.423-60.586 513.467-60.586 513.467h295.596c-.002 0 208.629-434.044-60.588-513.467" style="fill:#233264"/><path d="M656.293 587.192c-40.58 0-73.477-32.896-73.477-73.476v-56.031c0-40.58 32.896-73.476 73.476-73.476s73.476 32.897 73.476 73.476v56.031c.002 40.58-32.895 73.476-73.475 73.476" style="fill:#da8c8d"/><path d="M764.556 638.56 740.52 818.608H568.401l-23.528-176.245c-.783-5.868-7.23-9.106-12.405-6.231l-24.235 13.465a8.4 8.4 0 0 0-4.32 7.342v486.698h304.761l-3.665-325.029V655.401a5.79 5.79 0 0 0-2.975-5.057L773.1 634.268c-3.565-1.98-8.005.25-8.544 4.292" style="fill:#f6b233"/><path d="M656.274 473.633c-1.353 4.556-2.79 9.082-4.182 13.625l-4.34 13.568-1.067 3.399c-.323 1.107-.777 2.369-.89 3.21-.272 1.864.172 3.797 1.286 5.329a6.8 6.8 0 0 0 2.089 1.938c.75.485 2.01.905 3.058 1.411 2.179.968 4.337 1.997 6.438 3.2l-.105.317c-2.403-.293-4.748-.758-7.074-1.285a48 48 0 0 1-1.74-.407c-.535-.13-1.254-.317-1.892-.594a9.54 9.54 0 0 1-3.395-2.503c-1.888-2.163-2.607-5.298-1.907-8.075.398-1.478.906-2.404 1.342-3.542l1.339-3.301 5.284-13.229c1.816-4.39 3.586-8.797 5.441-13.172zM656.048 588.865c-28.673 0-47.893-17.387-48.699-18.129a1.67 1.67 0 0 1 2.264-2.461c.188.173 19.112 17.247 46.442 17.247h.238a1.673 1.673 0 0 1 .006 3.344zM598.887 425.318s2.715 43.462-16.071 55.042v36.737s-47.333-47.486-15.065-94.524zM710.846 425.318s-2.715 43.462 16.071 55.042l2.577 39.761s41.703-57.203 9.436-104.241z" style="fill:#233264"/><path d="m588.544 625.24 14.645 8.485c31.991 18.534 71.569 18.031 103.078-1.309l13.222-8.116s-50.634-23.417-130.945.94" style="fill:#da8c8d"/><path d="M503.913 1075.658s-46.736 251.038-46.736 278.325h406.658l-56.112-294.692z" style="fill:#f6b233"/><path d="M774.49 811.969a1.674 1.674 0 0 1-1.669-1.803l12.5-159.796a1.68 1.68 0 0 1 1.797-1.537c.92.072 1.608.877 1.537 1.797l-12.5 159.797a1.67 1.67 0 0 1-1.665 1.542M534.471 823.453c-.867 0-1.601-.67-1.666-1.549l-12.3-166.618a1.673 1.673 0 0 1 1.544-1.791 1.676 1.676 0 0 1 1.79 1.544l12.3 166.618a1.67 1.67 0 0 1-1.668 1.796" style="fill:#233264"/><circle cx="738.847" cy="480.36" r="19.357" style="fill:#da8c8d" transform="rotate(-76.827 738.87 480.347)"/><path d="M728.39 487.144c-.17-2.665.504-5.358 1.778-7.807 1.28-2.438 3.357-4.633 5.987-5.899 2.616-1.302 5.618-1.57 8.316-1.112a17.16 17.16 0 0 1 7.364 3.094c-2.64-.274-5.145-.563-7.551-.472-2.4.064-4.668.509-6.664 1.494-2.005.966-3.757 2.466-5.258 4.326-1.507 1.864-2.791 4.013-3.972 6.376" style="fill:#233264"/><circle cx="571.507" cy="487.144" r="19.357" style="fill:#da8c8d"/><path d="M581.963 493.928c-1.181-2.363-2.465-4.513-3.972-6.375-1.501-1.861-3.253-3.36-5.258-4.326-1.997-.985-4.265-1.43-6.664-1.494-2.406-.091-4.911.198-7.551.472a17.15 17.15 0 0 1 7.364-3.095c2.698-.458 5.7-.19 8.316 1.112 2.63 1.266 4.708 3.461 5.987 5.899 1.274 2.449 1.948 5.142 1.778 7.807" style="fill:#233264"/><path d="M908.831 1350.208H871.35L301.806 560.361l25.705-18.822z" style="fill:#fff"/><path d="M404.989 445.687 191.598 601.933c-6.02 4.408-14.474 3.101-18.882-2.919L131.1 542.178c-4.408-6.02-3.101-14.474 2.919-18.883L347.41 367.049c6.02-4.408 14.474-3.101 18.882 2.919l41.616 56.836c4.408 6.021 3.101 14.475-2.919 18.883" style="fill:#233264"/><path d="m184.356 649.287-50.229-68.601 16.384-11.996a2.363 2.363 0 0 1 2.793 3.813l-12.571 9.205 44.645 60.973 260.68-190.872-44.645-60.973-17.482 12.8a2.362 2.362 0 1 1-2.793-3.813l21.296-15.593 50.23 68.601z" style="fill:#233264"/><path d="m330.33 555.832-17.385 12.729c-5.589 4.092-13.437 2.879-17.529-2.71s-2.879-13.437 2.71-17.529l17.385-12.729c5.589-4.092 13.437-2.879 17.529 2.71s2.879 13.437-2.71 17.529" style="fill:#233264"/><path d="m642.707 888.586-36.356-11.282-21.507-16.527a18.18 18.18 0 0 0-19.975-1.441l-16.208 9.091c-8.55 4.796-12.041 15.314-8.055 24.271a65.6 65.6 0 0 0 16.258 22.276l6.542 5.838a20.34 20.34 0 0 0 15.635 5.056l21.06-2.177 13.566 8.663c0-.002 34.358-42.118 29.04-43.768" style="fill:#da8c8d"/><path d="M540.608 894.115a1.418 1.418 0 0 1-.756-2.618l18.84-11.841a1.418 1.418 0 1 1 1.509 2.401l-18.84 11.841a1.4 1.4 0 0 1-.753.217M549.791 905.955a1.419 1.419 0 0 1-.756-2.619l18.841-11.84a1.42 1.42 0 0 1 1.509 2.402l-18.841 11.84a1.4 1.4 0 0 1-.753.217M559.211 917.669a1.419 1.419 0 0 1-.756-2.619l18.841-11.84a1.42 1.42 0 0 1 1.509 2.402l-18.841 11.84a1.4 1.4 0 0 1-.753.217M857.611 723.783s176.879 261.086 54.195 353.937c-71.031 53.759-305.455-134.342-305.455-134.342l43.974-66.273 164.598 57.317z" style="fill:#233264"/><path d="M925.248 992.019a2.38 2.38 0 0 1-2.058-1.179c-21.669-37.038-107.847-53.914-108.714-54.08a2.38 2.38 0 0 1 .895-4.678c.222.043 22.434 4.34 47.099 13.304 33.41 12.142 55.222 26.626 64.831 43.05a2.38 2.38 0 0 1-2.053 3.583" style="fill:#121d3d"/><path d="M442.998 753.193s-78.818 216.923-38.912 372.172c24.209 94.18 302.685-11.928 302.685-11.928l-33.72-62.047-177.998-16.156z" style="fill:#233264"/><path d="m675.566 1056.017 23.877 2.802c2.663.312 5.36.159 7.97-.453l10.777-2.526a20.07 20.07 0 0 1 20.691 7.575l7.85 10.573a22.66 22.66 0 0 1 .11 26.871 15.07 15.07 0 0 1-12.169 6.184h-31.376z" style="fill:#da8c8d"/><path d="M738.068 1072.644a1.419 1.419 0 0 1-.115-2.831l5.525-.455c.776-.08 1.465.516 1.529 1.297a1.417 1.417 0 0 1-1.297 1.529l-5.525.455a1 1 0 0 1-.117.005M743.593 1080.992a1.419 1.419 0 0 1-.115-2.831l5.525-.454c.773-.08 1.465.516 1.529 1.297a1.417 1.417 0 0 1-1.297 1.529l-5.525.454a1 1 0 0 1-.117.005M731.808 1064.354a1.418 1.418 0 0 1-.115-2.831l5.525-.454c.774-.083 1.466.516 1.529 1.297a1.42 1.42 0 0 1-1.297 1.529l-5.525.454q-.058.006-.117.005M686.217 433.995c-6.509 1.322-13.647 2.122-19.472-1.07-5.824-3.192-8.891-11.912-4.269-16.681-10.809 12.321-25.583 21.108-41.569 24.723-1.847.418-3.893.742-5.545-.184-1.693-.95-2.48-2.947-2.929-4.835a26.44 26.44 0 0 1 .768-14.78c-6.851 10.196-17.453 17.81-29.304 21.045-6.408 1.749-13.72 2.112-19.257-1.559-5.88-3.898-8.317-11.414-8.63-18.461-.567-12.749 4.538-25.321 12.385-35.385s18.285-17.831 29.28-24.311c11.188-6.594 23.148-12.005 35.751-15.139 29.569-7.351 60.88-1.795 89.939 7.364 10.719 3.378 22.058 7.838 28.086 17.323 3.591 5.65 4.849 12.491 5.109 19.18.323 8.317-.845 16.858-4.701 24.234s-10.649 13.462-18.786 15.216c-3.41.735-7 .6-10.361-.32-3.225-.883-5.903-2.67-8.813-4.227-2.349-1.256-4.429-1.449-6.839-.18-3.108 1.637-5.918 3.515-9.231 4.787-3.758 1.447-7.672 2.46-11.612 3.26" style="fill:#233264"/><circle cx="621.493" cy="473.576" r="5.809" style="fill:#233264"/><circle cx="681.117" cy="473.576" r="5.809" style="fill:#233264"/><path d="M641.645 459.513c-.295 0-.595-.046-.891-.144-12.497-4.134-26.017-5.557-39.101-4.115a2.84 2.84 0 0 1-3.13-2.509 2.837 2.837 0 0 1 2.509-3.13c13.888-1.53 28.239-.02 41.503 4.368a2.836 2.836 0 0 1-.89 5.53M666.775 459.513a2.837 2.837 0 0 1-.89-5.529c13.265-4.387 27.618-5.896 41.503-4.368a2.837 2.837 0 0 1 2.509 3.13 2.84 2.84 0 0 1-3.13 2.509c-13.083-1.443-26.604-.018-39.101 4.115a2.9 2.9 0 0 1-.891.143" style="fill:#233264"/><path d="M632.387 541.539h48.73s-18.573 21.955-29.812 16.695-18.918-16.695-18.918-16.695" style="fill:#fff"/><path d="M3401.374 1359.208H297.276a4.5 4.5 0 0 1 0-9h3104.098a4.5 4.5 0 0 1 0 9" style="fill:#233264"/></svg>